<?xml version="1.0" encoding="UTF-8" standalone="no"?>
<!-- Created with Inkscape (http://www.inkscape.org/) -->
<svg id="svg2" xmlns:rdf="http://www.w3.org/1999/02/22-rdf-syntax-ns#" xmlns="http://www.w3.org/2000/svg" height="450" width="750" version="1.1" xmlns:cc="http://creativecommons.org/ns#" xmlns:xlink="http://www.w3.org/1999/xlink" viewBox="0 0 750 450" xmlns:dc="http://purl.org/dc/elements/1.1/">
 <defs id="defs4">
  <linearGradient id="linearGradient4156" y2="39.179" gradientUnits="userSpaceOnUse" x2="370.73" y1="490.72" x1="373.76">
   <stop id="stop4152" style="stop-color:#000080" offset="0"/>
   <stop id="stop4154" style="stop-color:#000080;stop-opacity:0" offset="1"/>
  </linearGradient>
  <linearGradient id="linearGradient4186" y2="125.04" gradientUnits="userSpaceOnUse" x2="365.36" gradientTransform="translate(12.479 -2.491)" y1="66.291" x1="351.43">
   <stop id="stop4182" style="stop-color:#ff0" offset="0"/>
   <stop id="stop4184" style="stop-color:#ff0;stop-opacity:0" offset="1"/>
  </linearGradient>
 </defs>
 <metadata id="metadata7">
  <rdf:RDF>
   <cc:Work rdf:about="">
    <dc:format>image/svg+xml</dc:format>
    <dc:type rdf:resource="http://purl.org/dc/dcmitype/StillImage"/>
    <dc:title/>
   </cc:Work>
  </rdf:RDF>
 </metadata>
 <g id="layer1" transform="translate(3.4008 -22.148)">
  <rect id="rect3336" style="fill-rule:evenodd;stroke:#000;stroke-width:1.1099px;fill:#00f" height="450" width="750" y="22.703" x="-2.8022"/>
  <path id="path4138" style="stroke:#000;stroke-width:.71429" d="m-1.6458 246.99v-223.57h373.57 373.57v223.57 223.57h-373.57-373.57v-223.57z"/>
  <rect id="rect4140" style="fill:url(#linearGradient4156)" height="450" width="750" y="37.619" x="-3.4008"/>
  <ellipse id="lluna_sorpren" style="fill:url(#linearGradient4186)" rx="31.315" ry="32.325" cy="87.196" cx="378.15"/>
  <ellipse id="path4188" style="fill:#ff0" rx="4.9107" ry="5" cy="72.907" cx="388.1"/>
  <g id="boca_sorpresa" transform="translate(-3.3929 116.07)">
   <g id="g5412" transform="translate(3.2143 -116.25)">
    <ellipse id="path4205" style="fill:#ff0" rx="15.982" ry="13.482" cy="99.89" cx="378.01"/>
   </g>
   <ellipse id="path4209" style="fill:#f9f9f9" rx="10.786" ry="4.9838" cy="-7.8218" cx="381.41"/>
  </g>
  <path id="path4259" style="fill:#f9f9f9" d="m386.41 77.54c-1.0416-0.36941-2.1036-1.3442-2.6423-2.4253-0.59949-1.203-0.6388-3.0387-0.091-4.2502 1.6678-3.6888 6.8672-3.8689 8.6754-0.30041 1.2757 2.5175 0.3802 5.4103-2.0692 6.6843-1.2646 0.6578-2.5643 0.75565-3.8729 0.29158z"/>
  <path id="path4259-5" style="fill:#f9f9f9" d="m365.49 77.714c-1.0416-0.36941-2.1036-1.3442-2.6423-2.4253-0.59949-1.203-0.6388-3.0387-0.091-4.2502 1.6678-3.6888 6.8672-3.8689 8.6754-0.30041 1.2757 2.5175 0.3802 5.4103-2.0692 6.6843-1.2646 0.6578-2.5643 0.75565-3.8729 0.29158z"/>
  <ellipse id="path4282" rx="1.5179" ry="1.1607" cy="73.353" cx="367.03"/>
  <ellipse id="path4282-4" rx="1.5179" ry="1.1607" cy="73.272" cx="388.09"/>
  <path id="path4388" style="fill:#f9f9f9" d="m99.286 77.362-7.6178-3.6458-7.3219 4.2085 1.1133-8.3715-6.2651-5.6631 8.3058-1.5281 3.4499-7.7085 4.02 7.4271 8.3973 0.89896-5.8213 6.1183z"/>
  <path id="path4390" style="fill:#f9f9f9" d="m152.14 119.51 2.6016-10.805-7.4261-8.2688 11.08-0.86466 5.5693-9.6179 4.2463 10.271 10.868 2.3246-8.4559 7.2124 1.1476 11.055-9.4724-5.8133z"/>
  <path id="path4392" style="fill:#f9f9f9" d="m237.86 150.93-9.7776 3.7676-2.4394 10.19-6.6046-8.1348-10.446 0.82902 5.6957-8.7952-4.0163-9.6781 10.125 2.699 7.9633-6.8104 0.56177 10.463z"/>
  <path id="path4394" style="fill:#f9f9f9" d="m252.14 90.934-9.1093-2.3807-7.1254 6.1543-0.55072-9.3991-8.055-4.8748 8.7689-3.4283 2.1471-9.1671 5.9702 7.2803 9.382-0.79078-5.0791 7.9277z"/>
  <path id="path4396" style="fill:#f9f9f9" d="m616.43 74.505-1.751 10.385 7.5626 7.33-10.418 1.544-4.6343 9.4575-4.6878-9.4311-10.427-1.4849 7.5209-7.3727-1.8098-10.375 9.336 4.8745z"/>
  <path id="path4398" style="fill:#f9f9f9" d="m584.29 142.36 4.0656-6.7671-3.2697-7.1855 7.6922 1.7755 5.8234-5.3301 0.68845 7.8644 6.8688 3.8913-7.2667 3.085-1.5783 7.7351-5.1795-5.9578z"/>
  <path id="path4400" style="fill:#f9f9f9" d="m462.14 160.93 9.3357-0.37581 4.983-7.9036 3.2423 8.7626 9.0566 2.2967-7.3318 5.7914 0.6143 9.323-7.7736-5.1834-8.6769 3.4652 2.5275-8.9949z"/>
  <path id="path4402" style="fill:#f9f9f9" d="m352.14 176.65-0.39783-5.0932-4.4212-2.5597 4.721-1.9522 1.0682-4.9958 3.3156 3.8866 5.0814-0.52788-2.6719 4.3543 2.0723 4.6695-4.9669-1.1955z"/>
  <path id="path4404" style="fill:#f9f9f9" d="m139.29 179.51 4.4524 0.44737 2.8927-3.4142 0.9504 4.3728 4.141 1.6961-3.865 2.2551-0.33342 4.4624-3.3391-2.979-4.347 1.0619 1.8014-4.0963z"/>
  <path id="path4406" style="fill:#f9f9f9" d="m42.857 124.51-3.8006-3.4138-4.9669 1.1955 2.0723-4.6696-2.6719-4.3543 5.0814 0.52788 3.3156-3.8866 1.0682 4.9958 4.721 1.9522-4.4212 2.5597z"/>
  <path id="path4408" style="fill:#f9f9f9" d="m72.857 168.79-0.01651 3.1819 2.6118 1.8175-3.0312 0.96755-0.92142 3.0456-1.8569-2.5839-3.1813 0.0648 1.8836-2.5645-1.0447-3.0055 3.021 0.99895z"/>
  <path id="path4410" style="fill:#f9f9f9" d="m676.43 98.076-11.004-5.1482-10.479 6.1463 1.4958-12.056-9.0838-8.0672 11.929-2.303 4.8653-11.132 5.8764 10.633 12.091 1.1872-8.2967 8.8746z"/>
  <path id="path4412" style="fill:#f9f9f9" d="m680 170.22 4.6568 1.9333 4.2327-2.7402-0.39967 5.0264 3.914 3.1788-4.9039 1.1731-1.8137 4.7047-2.6311-4.3013-5.0349-0.27107 3.2778-3.8315z"/>
  <g id="boca_somriu" transform="translate(-6.5963 158.55)">
   <path id="path4374" style="fill:#ff0" transform="matrix(.88554 -.46456 .60335 .79748 0 0)" d="m362.04 128.66a15.323 14.237 0 0 1 -12.632 14.016 15.323 14.237 0 0 1 -17.069 -9.0932 15.323 14.237 0 0 1 6.637 -17.21l7.7407 12.287z"/>
   <ellipse id="path4209-8" style="fill:#f9f9f9" rx="10.786" ry="4.9838" cy="-49.995" cx="384.63"/>
  </g>
 </g>
</svg>
