<!--<?xml version="1.0" encoding="UTF-8" standalone="no"?>
<svg id="svg2" xmlns:rdf="http://www.w3.org/1999/02/22-rdf-syntax-ns#" xmlns="http://www.w3.org/2000/svg" height="44.614" width="40" version="1.1" xmlns:cc="http://creativecommons.org/ns#" xmlns:dc="http://purl.org/dc/elements/1.1/">-->
    <?xml version="1.0" encoding="UTF-8" standalone="no"?>
<svg id="monosvg_player2" xmlns:rdf="http://www.w3.org/1999/02/22-rdf-syntax-ns#" xmlns="http://www.w3.org/2000/svg" version="1.1" xmlns:cc="http://creativecommons.org/ns#" xmlns:xlink="http://www.w3.org/1999/xlink" xmlns:dc="http://purl.org/dc/elements/1.1/">
 <metadata id="metadata193">
  <rdf:RDF>
   <cc:Work rdf:about="">
    <dc:format>image/svg+xml</dc:format>
    <dc:type rdf:resource="http://purl.org/dc/dcmitype/StillImage"/>
    <dc:title/>
   </cc:Work>
  </rdf:RDF>
 </metadata>
 <g id="g4253" transform="translate(-18.605 -338.05)">
  <g id="g4255" transform="matrix(.13079 0 0 .13079 16.172 332.62)">
   <path id="path2383" style="stroke-linejoin:round;stroke:#010101;stroke-width:4;stroke-linecap:round;fill:#3f3f3f" d="m295.13 239.46c0.046 68.145-55.158 123.42-123.3 123.47-68.145 0.046-123.42-55.158-123.47-123.3v-0.166c-0.046-68.144 55.159-123.42 123.3-123.47 68.144-0.046 123.42 55.16 123.47 123.3v0.16398z"/>
   <path id="path3339" style="fill:#3f3f3f;fill-opacity:.3137" d="m279.92 180.84c3.203 10.975 4.906 22.589 4.906 34.594 0 68.108-55.266 123.38-123.38 123.38-46.824 0-87.598-26.132-108.5-64.594 15.023 51.2 62.367 88.625 118.41 88.625 68.109 0 123.37-55.267 123.37-123.38 0-21.21-5.373-41.187-14.812-58.625z"/>
   <path id="svg_1" style="stroke-linejoin:round;stroke:#010101;stroke-width:4;stroke-linecap:round;fill:#7f7f7f" d="m107.89 300.84c-0.24957 1.9098-0.39287 3.8551-0.39287 5.8321v0.0608c0.0185 24.878 20.631 45.034 46.044 45.016 6.9784-0.004 13.589-1.5382 19.513-4.2622 5.9418 2.7341 12.574 4.2672 19.574 4.2622 25.413-0.0165 46-20.198 45.983-45.077v-0.0596c-0.002-1.9568-0.1456-3.8805-0.39288-5.7713 13.746-5.8486 22.098-13.559 22.083-22.008v-0.0444c-0.0301-18.269-39.12-31.101-87.305-31.089-48.184 0.0127-87.221 12.865-87.189 31.134v0.0418c0.0173 8.4356 8.365 16.127 22.084 21.965z"/>
   <line id="svg_2" style="stroke-linejoin:round;stroke:#010101;stroke-width:4;stroke-linecap:round;fill:none" y2="295.5" x2="173.8" y1="259.43" x1="173.8"/>
   <ellipse id="svg_4" style="stroke-linejoin:round;stroke:#010101;stroke-width:4;stroke-linecap:round;fill:none" rx="2" ry="3" cy="281.54" cx="132.8"/>
   <ellipse id="svg_6" style="stroke-linejoin:round;stroke:#010101;stroke-width:4;stroke-linecap:round;fill:none" rx="2" ry="3" cy="281.54" cx="215.8"/>
   <g id="bras_dret" transform="translate(-11.864,2.5424)">
    <g id="g248">
     <path id="path250" style="stroke:#010101;stroke-width:4;stroke-linecap:round;fill:#3f3f3f" d="m284.26 166c-11.738-12.387 74.901 82.724 42.941 116.58-24.941 26.421-47 39-56 30l6-25s28-20 19-29-19-19-19-28"/>
     <path id="path3349_2_" style="fill:#3f3f3f;fill-opacity:.3137" d="m324.76 232.75c1.75-1 10 8.25 10 36 0 13.432-45.061 47.424-57.25 47.75 6.031-2.515 62.75-40 47.25-83.75z"/>
    </g>
    <path id="path255" style="stroke-linejoin:round;stroke:#010101;stroke-width:4;stroke-linecap:round;fill:#3f3f3f" d="m265.87 285.18c12.368-3.434 23.364 5.033 29.446 16.896 6.954 13.571 1.587 30.228-11.98 37.182-13.568 6.955-18.728-4.306-25.683-17.873-2.314-4.519-9.197-17.371-10.842-20.579-3.466-6.762-6.521-12.126 0.242-15.593 5.588-2.864 14.725-4.4 18.817-0.033z"/>
    <path id="path2510_6_" style="stroke:#010101;stroke-width:4;stroke-linecap:round;fill:#3f3f3f" d="m263.51 329.47c8.267-1.45 15.301-8.24 15.301-8.24"/>
    <path id="path2512_6_" style="stroke:#010101;stroke-width:4;stroke-linecap:round;fill:#3f3f3f" d="m256.67 320.05c10.112-8.599 20.813-10.182 20.813-10.182"/>
    <path id="path2514_12_" style="stroke:#010101;stroke-width:4;stroke-linecap:round;fill:#3f3f3f" d="m252.78 309.54c5.878-10.023 15.451-8.922 15.451-8.922"/>
    <path id="path2514_11_" style="stroke:#010101;stroke-width:4;stroke-linecap:round;fill:#3f3f3f" d="m247.2 298.65c4.812-9.477 13.512-7.93 13.512-7.93"/>
    <path id="path3349_1_" style="fill:#3f3f3f;fill-opacity:.3137" d="m298.16 311.12c-0.74301 5.145-2.818 15.493-5.835 20.626-7.443 12.662-14.532 11.181-22.848 6.705 10.879-0.008 22.221-19.395 28.683-27.331z"/>
   </g>
   <g id="bras_esquerra">
    <g id="g264" transform="translate(-11.864,2.5424)">
     <path id="path266" style="stroke:#010101;stroke-width:4;stroke-linecap:round;fill:#3f3f3f" d="m82.522 166c11.738-12.39-74.901 82.72-42.941 116.58 24.941 26.421 47 39 56 30l-6-25s-28-20-19-29 19-19 19-28"/>
    </g>
    <g id="g268" transform="translate(-11.864,2.5424)">
     <path id="path270" style="stroke-linejoin:round;stroke:#010101;stroke-width:4;stroke-linecap:round;fill:#3f3f3f" d="m100.92 285.18c-12.368-3.434-23.364 5.033-29.446 16.896-6.954 13.571-1.587 30.228 11.98 37.182 13.568 6.955 18.728-4.306 25.683-17.873 2.314-4.519 9.197-17.371 10.842-20.579 3.466-6.762 6.521-12.126-0.242-15.593-5.588-2.864-14.725-4.4-18.817-0.033z"/>
     <path id="path2510_1_" style="stroke:#010101;stroke-width:4;stroke-linecap:round;fill:#3f3f3f" d="m103.28 329.47c-8.267-1.45-15.301-8.24-15.301-8.24"/>
     <path id="path2512_1_" style="stroke:#010101;stroke-width:4;stroke-linecap:round;fill:#3f3f3f" d="m110.11 320.05c-10.11-8.59-20.811-10.18-20.811-10.18"/>
     <path id="path2514_2_" style="stroke:#010101;stroke-width:4;stroke-linecap:round;fill:#3f3f3f" d="m114 309.54c-5.88-10.03-15.45-8.93-15.45-8.93"/>
     <path id="path2514_1_" style="stroke:#010101;stroke-width:4;stroke-linecap:round;fill:#3f3f3f" d="m119.58 298.65c-4.81-9.48-13.51-7.93-13.51-7.93"/>
     <path id="path3349_3_" style="fill:#3f3f3f;fill-opacity:.3137" d="m68.627 311.12c0.743 5.145 2.818 15.493 5.835 20.626 7.443 12.662 14.532 11.181 22.848 6.705-10.879-0.01-22.221-19.4-28.683-27.33z"/>
    </g>
   </g>
   <path id="path2479" style="stroke-linejoin:round;stroke:#010101;stroke-width:4;stroke-linecap:round;fill:#3f3f3f" d="m100.44 69.52c-14.965 0-27.116 12.15-27.116 27.117 0 9.685 5.088 18.175 12.733 22.971-8.083 14.287-12.733 30.776-12.733 48.353 0 54.329 44.067 98.438 98.398 98.438 54.329 0 98.439-44.109 98.439-98.438 0-17.577-4.651-34.066-12.733-48.353 7.628-4.8 12.733-13.299 12.733-22.971 0-14.967-12.152-27.117-27.116-27.117-9.673 0-18.13 5.104-22.929 12.733-14.29-8.095-30.8-12.734-48.39-12.734-17.585 0-34.063 4.643-48.354 12.733-4.8-7.629-13.26-12.733-22.93-12.733z"/>
   <path id="path2483" style="stroke-linejoin:round;stroke:#010101;stroke-width:4;stroke-linecap:round;fill:#7f7f7f" d="m243.37 81.023c-5.438 0-10.188 2.865-12.897 7.147 8.318 5.602 15.478 12.755 21.075 21.075 4.268-2.712 7.112-7.503 7.112-12.931 0-8.438-6.852-15.291-15.29-15.291z"/>
   <path id="path2523" style="stroke-linejoin:round;stroke:#010101;stroke-width:4;stroke-linecap:round;fill:#7f7f7f" d="m100.38 81.023c5.438 0 10.188 2.865 12.897 7.147-8.317 5.602-15.478 12.755-21.074 21.075-4.269-2.712-7.113-7.503-7.113-12.931 0-8.438 6.852-15.291 15.29-15.291z"/>
   <path id="path3197" style="stroke-linejoin:round;stroke:#010101;stroke-width:4;stroke-linecap:round;fill:#3f3f3f" d="m196 83.327c10.329-6.026 6.848-35.613 1.938-37.745-4.407 15.867-8.815 22.161-16.498 27.138 2.178-9.828 0.615-23.342-6.677-29.178 0.73902 8.4-1.884 21.043-10.683 29.662-2.388-9.097-3.063-19.628-12.037-23.207 2.204 10.73-0.15601 17.419-2.794 24.631"/>
   <path id="path285" style="stroke-linejoin:round;stroke:#010101;stroke-width:4;stroke-linecap:round;fill:#7f7f7f" d="m228.14 168.51c0.21699-2.913 0.341-5.878 0.34-8.894v-0.091c-0.015-37.935-17.854-68.667-39.845-68.641-6.039 0.006-11.76 2.345-16.886 6.5-5.142-4.169-10.882-6.507-16.94-6.5-21.991 0.025-39.807 30.797-39.792 68.732v0.092c0.001 2.983 0.126 5.917 0.34 8.799-11.896 8.919-19.123 20.674-19.11 33.559v0.067c0.026 27.857 33.854 47.423 75.553 47.404 41.698-0.018 75.48-19.616 75.451-47.472v-0.064c-0.01-12.87-7.24-24.6-19.11-33.5z"/>
   <path id="path287" style="stroke-linejoin:round;stroke:#010101;stroke-width:4;stroke-linecap:round;fill:none" d="m156.75 216.54s6.375-0.5 17-0.5 17 0.5 17 0.5"/>
   <path id="path2398" style="fill:#010101" d="m188.12 164.38c-2.293 3.974-6.501 5.84-9.397 4.167s-3.385-6.249-1.091-10.222c2.293-3.973 6.501-5.838 9.397-4.166 2.897 1.673 3.385 6.249 1.091 10.221z"/>
   <path id="path2412" style="fill:#010101" d="m155.38 164.38c2.293 3.974 6.501 5.84 9.397 4.167s3.385-6.249 1.091-10.222c-2.293-3.973-6.501-5.838-9.397-4.166-2.897 1.673-3.385 6.249-1.091 10.221z"/>
   <g id="g295" transform="translate(-11.864,2.5424)">
    <path id="path2387" style="stroke-linejoin:round;stroke:#010101;stroke-width:4;stroke-linecap:round;fill:#fff" d="m180.26 126.84c0.008 11.501-9.309 20.831-20.811 20.838-11.5 0.008-20.831-9.31-20.838-20.81v-0.028c-0.008-11.501 9.31-20.831 20.811-20.839 11.501-0.007 20.83 9.31 20.838 20.811v0.028z"/>
    <path id="path2393" style="fill:#010101" d="m172.12 129.23c0.002 3.569-2.89 6.464-6.459 6.467-3.569 0.001-6.464-2.889-6.467-6.458v-0.009c-0.003-3.569 2.889-6.465 6.458-6.467 3.57-0.003 6.466 2.889 6.468 6.458v0.009z"/>
   </g>
   <g id="g299" transform="translate(-11.864,2.5424)">
    <path id="path2391" style="stroke-linejoin:round;stroke:#010101;stroke-width:4;stroke-linecap:round;fill:#fff" d="m228.61 126.84c0.008 11.501-9.309 20.831-20.811 20.838-11.501 0.008-20.831-9.31-20.838-20.81v-0.028c-0.008-11.501 9.309-20.831 20.811-20.839 11.5-0.007 20.831 9.31 20.838 20.811v0.028z"/>
    <path id="path2395" style="fill:#010101" d="m207.55 129.23c0 3.569-2.891 6.464-6.46 6.467-3.569 0.001-6.464-2.889-6.468-6.458v-0.009c-0.00099-3.569 2.891-6.465 6.459-6.467 3.57-0.003 6.465 2.889 6.469 6.458v0.009z"/>
   </g>
   <path id="path307" style="stroke-linejoin:round;stroke:#010101;stroke-width:4;stroke-linecap:round;fill:#3f3f3f" d="m200.72 354.54c2.805-13.632 16.412-20.055 30.869-20.055 16.533 0 29.951 13.418 29.951 29.95s-13.418 15.94-29.951 15.94c-5.504 0-21.311 0.28299-25.217 0.28299-8.24 0-14.928 0.29501-14.928-7.945 0-6.809 3.039-16.384 9.276-18.173z"/>
   <path id="path3349_4_" style="fill:#3f3f3f;fill-opacity:.3137" d="m255.04 345.29c2.541 4.4 7.004 13.519 7.004 18.964 0 13.432-8.865 15.548-21.055 15.874 12.109-5.048 12.051-25.588 14.051-34.838z"/>
   <path id="path2510_4_" style="stroke:#010101;stroke-width:4;stroke-linecap:round;fill:#3f3f3f" d="m242.29 378.73c2.688-8.696-0.38498-18.84-0.38498-18.84"/>
   <path id="path2512_4_" style="stroke:#010101;stroke-width:4;stroke-linecap:round;fill:#3f3f3f" d="m229.82 379.66c-3.295-14.01 0.47098-25.119 0.47098-25.119"/>
   <path id="path2514_8_" style="stroke:#010101;stroke-width:4;stroke-linecap:round;fill:#3f3f3f" d="m217.75 379.21c-6.76-10.63-0.97-19.32-0.97-19.32"/>
   <path id="path2514_7_" style="stroke:#010101;stroke-width:4;stroke-linecap:round;fill:#3f3f3f" d="m204.48 379.21c-6.764-9.33-0.96699-16.961-0.96699-16.961"/>
   <path id="path3327_4_" style="fill:#3f3f3f;fill-opacity:.3137" d="m201.21 356.26c-2.49 2.929-3.971 6.541-3.971 10.44 0 5.636 3.078 10.65 7.859 13.901-7.953-0.25901-13.658-1.671-13.658-9.324 0-6.343 3.904-11.907 9.77-15.017z"/>
   <path id="path317" style="stroke-linejoin:round;stroke:#010101;stroke-width:4;stroke-linecap:round;fill:#3f3f3f" d="m142.27 354.54c-2.805-13.632-16.413-20.055-30.87-20.055-16.532 0-29.95 13.418-29.95 29.95s13.418 15.94 29.95 15.94c5.505 0 21.311 0.28299 25.218 0.28299 8.24 0 14.927 0.29501 14.927-7.945-0.00099-6.809-3.039-16.384-9.275-18.173z"/>
   <path id="path2510_5_" style="stroke:#010101;stroke-width:4;stroke-linecap:round;fill:#3f3f3f" d="m100.69 378.73c-2.688-8.696 0.38401-18.84 0.38401-18.84"/>
   <path id="path2512_5_" style="stroke:#010101;stroke-width:4;stroke-linecap:round;fill:#3f3f3f" d="m113.16 379.66c3.294-14.01-0.471-25.119-0.471-25.119"/>
   <path id="path2514_10_" style="stroke:#010101;stroke-width:4;stroke-linecap:round;fill:#3f3f3f" d="m125.23 379.21c6.763-10.628 0.967-19.322 0.967-19.322"/>
   <path id="path2514_9_" style="stroke:#010101;stroke-width:4;stroke-linecap:round;fill:#3f3f3f" d="m138.5 379.21c6.763-9.33 0.96699-16.961 0.96699-16.961"/>
   <path id="path3327_5_" style="fill:#3f3f3f;fill-opacity:.3137" d="m141.41 356.01c2.582 2.959 4.117 6.608 4.117 10.548 0 5.693-3.19 10.76-8.147 14.044 8.243-0.262 14.157-1.688 14.157-9.42 0-6.409-4.047-12.031-10.127-15.172z"/>
   <path id="path4243" d="m266.14 260.95c-1.1929-2.3178-4.4543-6.4929-7.3784-9.4458l-5.2405-5.2919 4.6659-4.3648c8.6026-8.0473 12.579-15.207 11.172-20.115-0.36805-1.2833-3.6558-5.4044-7.7264-9.685-7.8636-8.2691-11.711-14.036-12.302-18.437-0.67814-5.0558-4.5407-6.1188-4.5407-1.2495 0 5.9068 4.2472 12.914 14.372 23.713 4.5748 4.8792 5.864 6.7188 5.864 8.368 0 3.0014-3.4449 7.8227-10.202 14.279-5.2763 5.0409-6.0522 5.538-8.0277 5.1429-1.2028-0.24055-2.6078-0.43736-3.1223-0.43736-0.72929 0-0.77339-0.58701-0.20006-2.6634 2.1091-7.6386-3.4356-16.483-14.107-22.502-2.9713-1.676-11.938-5.3068-19.178-7.7659-0.61408-0.20856 0.8578-1.7403 3.846-4.0024 22.711-17.193 37.16-43.991 39.596-73.438 0.18266-2.2079 0.58401-1.8018 7.8576 7.9498 14.036 18.818 21.235 30.028 28.179 43.883 11.931 23.804 14.828 40.501 9.0098 51.93-2.6417 5.189-26.986 28.298-29.803 28.29-0.32831-0.00072-1.559-1.871-2.7348-4.1556z" style="stroke:#000;stroke-width:2.1681;fill:#f00" transform="translate(18.605,41.543)"/>
   <path id="path4245" d="m29.794 259.89c-9.369-7.54-20.761-19.17-22.705-23.19-4.0161-8.29-3.6719-18.71 1.0912-33.02 5.8898-17.7 17.362-37.61 35.953-62.41l8.0445-10.731 1.3019 9.2854c1.4452 10.307 5.2251 22.709 9.5752 31.416 6.4324 12.874 17.908 26.694 29.285 35.267l5.5775 4.2028-7.2816 2.6967c-8.6787 3.2141-13.655 5.9235-18.155 9.8849-5.9166 5.208-8.6084 11.82-7.0743 17.376l0.70979 2.5707-4.4331 0.40896c-3.1309 0.28883-4.8831 0.117-5.9651-0.58496-3.0451-1.9755-10.954-10.308-12.746-13.43-3.3691-5.8675-3.4308-5.6376 3.6101-13.45 3.5131-3.8981 7.4293-8.4321 8.7027-10.075 5.0346-6.4972 7.603-15.371 4.7642-16.46-1.7138-0.65766-2.9204 0.67256-3.4149 3.7648-0.66234 4.1421-5.1937 10.976-12.393 18.691-3.5774 3.8336-6.8994 7.6521-7.3822 8.4857-2.4942 4.3065 0.49691 10.641 9.1872 19.456l6.5035 6.597-2.3475 1.8216c-4.7932 3.7194-12.104 13.283-12.104 15.833 0 1.7131-2.0521 0.62395-8.3037-4.4072z" style="stroke:#000;stroke-width:2.1681;fill:#f00" transform="translate(18.605,41.543)"/>
   <path id="path4247" d="m137.83 221.37c-6.8309-1.066-17.929-4.429-24.782-7.5098-19.044-8.5611-36.217-25.229-45.861-44.511-7.0829-14.162-9.813-25.972-9.8561-42.64-0.04283-16.553 2.3635-27.401 9.3614-42.203l3.2102-6.7902-4.3068-4.0505c-6.0432-5.6836-8.3496-10.8-8.3409-18.505 0.0084-7.4006 2.4789-13.226 7.6679-18.079 5.2872-4.9456 9.0828-6.3874 16.897-6.4185 8.3644-0.03328 12.787 1.9286 18.65 8.2732l4.0287 4.3595 5.6442-2.8082c3.1043-1.5445 8.1773-3.72 11.273-4.8345 4.8734-1.7542 5.8614-1.902 7.359-1.1005 0.95144 0.5092 2.1835 0.75175 2.7379 0.53902 1.5974-0.61296 4.3026-9.7561 4.6959-15.871 0.21109-3.2816 0.64427-5.4107 1.0499-5.16 1.1048 0.68278 3.1301 5.9702 4.5318 11.831 1.5021 6.2806 2.2394 7.9498 3.5112 7.9498 1.2108 0 4.8937-3.9352 7.2586-7.7558 2.232-3.606 5.4929-12.951 5.5342-15.86l0.0289-2.0407 1.025 1.886c1.6406 3.0186 2.6037 11.014 2.0812 17.278l-0.48111 5.7692h1.9776c1.4623 0 3.1546-1.1771 6.4944-4.5169 4.1731-4.1733 6.7951-8.5383 10.31-17.164 0.65127-1.5982 0.84207-1.1833 1.6524 3.5926 0.96116 5.6646 0.64909 13.577-0.72133 18.289-0.43667 1.5015-1.7775 3.8501-2.9796 5.2192-2.4214 2.7578-2.4975 4.9446-0.18366 5.2766 1.7444 0.25031 5.7832-3.9148 6.4772-6.6798 0.42484-1.6927 0.51148-1.7122 3.2754-0.73702 1.5614 0.55091 5.4763 2.3315 8.6997 3.9569l5.8607 2.9552 4.1872-4.3868c5.9358-6.2187 10.702-8.3354 18.756-8.3303 5.2459 0.0033 6.7408 0.29688 10.236 2.0101 5.2426 2.5696 9.7247 7.0439 12.1 12.079 1.5848 3.3598 1.875 4.9815 1.875 10.479 0 5.6577-0.26286 7.0397-2.0194 10.617-1.2034 2.4507-3.6126 5.5684-5.9624 7.7159-2.1686 1.982-3.9429 3.9722-3.9429 4.4226 0 0.45045 1.2647 3.4827 2.8105 6.7383 3.2154 6.7719 6.1016 15.207 7.713 22.542 1.7312 7.8799 2.136 25.363 0.77837 33.615-4.7275 28.733-20.053 51.892-44.537 67.304-18.95 11.928-43.099 16.794-65.776 13.256zm36.716-12.906c25.637-4.7765 44.364-16.087 52.046-31.435 7.7799-15.544 4.7822-31.297-8.6101-45.247l-5.6722-5.9083-0.3047-10.062c-0.66898-22.091-6.5332-41.363-16.548-54.383-3.8814-5.0461-7.8804-8.4383-13.042-11.063-8.5007-4.323-16.735-4.2558-25.143 0.20514l-4.0483 2.1478-4.4126-2.2423c-12.39-6.291-24.18-3.645-34.98 7.853-12.12 12.906-19.371 34.63-19.371 58.013v9.3616l-4.3265 4.0056c-5.143 4.7615-10.378 12.379-12.465 18.139-1.858 5.1282-2.5409 16.054-1.31 20.96 1.6098 6.4157 5.0602 12.43 10.289 17.935 5.0859 5.3541 13.557 11.373 19.917 14.152 9.3277 4.0755 23.308 7.7312 33.787 8.8346 6.1039 0.64276 28.371-0.18055 34.186-1.264zm-96.113-143.5c4.1315-5.4174 10.947-12.055 15.415-15.011 3.6847-2.4385 3.6398-4.3244-0.18542-7.7803-3.8761-3.5019-6.9172-4.7115-11.845-4.7115-6.8593 0-12.392 3.426-15.756 9.7566-2.1326 4.0135-2.1228 11.171 0.02075 15.245 1.6307 3.0997 6.1197 7.52 7.6369 7.52 0.48712 0 2.6081-2.2585 4.7132-5.0188zm157.97 2.8189c7.7114-6.7707 7.5442-19.476-0.34517-26.229-4.8651-4.1643-12.688-5.333-18.371-2.7445-2.78 1.2661-8.3112 6.5983-8.3112 8.0122 0 0.37612 1.2196 1.5845 2.7102 2.6852 6.2835 4.6402 11.106 9.24 15.393 14.683 2.5096 3.1861 4.9803 5.7928 5.4906 5.7928 0.51026 0 2.0552-0.98995 3.4333-2.1999z" style="stroke:#000;stroke-width:2.1681;fill:#f00" transform="translate(18.605,41.543)"/>
   <path id="path4249" d="m77.435 292.8-1.3157-1.052 1.2874-2.4493c0.70807-1.3471 1.796-3.3692 2.4177-4.4934 1.2302-2.2249 1.2211-2.2073 2.9948-5.7491 0.66862-1.3351 1.915-3.7437 2.7698-5.3525l1.5541-2.9251 0.45688 2.7134c0.82261 4.8855 3.4522 11.744 6.2233 16.232l0.67055 1.086h-1.6182c-3.684 0-8.398 0.91801-11.909 2.3192-1.0295 0.41088-1.9494 0.74161-2.0441 0.73496-0.09478-0.007-0.76438-0.48548-1.488-1.0641z" style="stroke:#000;stroke-width:.76655;fill:#f00" transform="translate(18.605,41.543)"/>
   <path id="path4251" d="m147.74 319.17c-4.6581-0.20549-10.469-0.78946-13.949-1.4019-1.182-0.20801-2.1587-0.37836-2.1705-0.37855s-0.43727-0.60401-0.94554-1.3418c-1.0616-1.5411-2.4199-2.9047-3.8879-3.9033l-1.0221-0.69529 0.89431 0.15409c8.258 1.423 17.81 0.48531 25.564-2.5095 2.1127-0.81591 2.3857-0.86558 3.008-0.54716 1.1456 0.58617 6.1597 2.1208 8.7332 2.6729 3.6472 0.78241 7.8603 1.144 11.646 0.99956l3.3917-0.12942-1.2206 0.96483c-0.67134 0.53066-1.7978 1.7584-2.5033 2.7283l-1.2827 1.7635-2.0426 0.31269c-7.7049 1.1795-16.456 1.6533-24.214 1.3111z" style="stroke:#000;stroke-width:.76655;fill:#f00" transform="translate(18.605,41.543)"/>
   <path id="path4253" d="m226.31 293.77c-2.1089-1.1402-6.5148-2.2977-10.784-2.8329l-1.2017-0.15068 0.8484-1.3276c2.0286-3.1744 4.3581-8.5798 5.3971-12.523l0.45887-1.7416 1.3585 2.5082c0.74719 1.3795 1.4896 2.9106 1.6498 3.4025 0.16022 0.49187 0.48962 1.1243 0.73199 1.4054 0.24237 0.28107 1.4856 2.5438 2.7626 5.0282l2.322 4.5172-1.3485 1.0404c-1.5321 1.182-1.3566 1.1281-2.1956 0.67451z" style="stroke:#000;stroke-width:.76655;fill:#f00" transform="translate(18.605,41.543)"/>
  </g>
 </g>
</svg>
