<?xml version="1.0" encoding="UTF-8" standalone="no"?>
<svg id="monosvg2" xmlns:rdf="http://www.w3.org/1999/02/22-rdf-syntax-ns#" xmlns="http://www.w3.org/2000/svg" version="1.1" xmlns:cc="http://creativecommons.org/ns#" xmlns:xlink="http://www.w3.org/1999/xlink" xmlns:dc="http://purl.org/dc/elements/1.1/">
 <metadata id="metadata193">
  <rdf:RDF>
   <cc:Work rdf:about="">
    <dc:format>image/svg+xml</dc:format>
    <dc:type rdf:resource="http://purl.org/dc/dcmitype/StillImage"/>
    <dc:title/>
   </cc:Work>
  </rdf:RDF>
 </metadata>
 <g id="g4339" transform="matrix(.13079 0 0 .13079 -.000018829 .000098311)">
  <path id="path2383" style="stroke-linejoin:round;stroke:#010101;stroke-linecap:round;stroke-width:4;fill:#f60" d="m276.52 197.92c0.046 68.145-55.158 123.42-123.3 123.47-68.145 0.046-123.42-55.158-123.47-123.3v-0.166c-0.046-68.144 55.159-123.42 123.3-123.47 68.144-0.046 123.42 55.16 123.47 123.3v0.16398z"/>
  <path id="path3339" style="fill:#3f3f3f;fill-opacity:.3137" d="m261.32 139.3c3.203 10.975 4.906 22.589 4.906 34.594 0 68.108-55.266 123.38-123.38 123.38-46.824 0-87.598-26.132-108.5-64.594 15.023 51.2 62.367 88.625 118.41 88.625 68.109 0 123.37-55.267 123.37-123.38 0-21.21-5.373-41.187-14.812-58.625z"/>
  <path id="svg_1" style="stroke-linejoin:round;stroke:#010101;stroke-width:4;stroke-linecap:round;fill:#7f7f7f" d="m89.285 259.3c-0.24957 1.9098-0.39287 3.8551-0.39287 5.8321v0.0608c0.0185 24.878 20.631 45.034 46.044 45.016 6.9784-0.004 13.589-1.5382 19.513-4.2622 5.9418 2.7341 12.574 4.2672 19.574 4.2622 25.413-0.0165 46-20.198 45.983-45.077v-0.0596c-0.002-1.9568-0.1456-3.8805-0.39288-5.7713 13.746-5.8486 22.098-13.559 22.083-22.008v-0.0444c-0.0301-18.269-39.12-31.101-87.305-31.089-48.184 0.0127-87.221 12.865-87.189 31.134v0.0418c0.0173 8.4356 8.365 16.127 22.084 21.965z"/>
  <line id="svg_2" style="stroke-linejoin:round;stroke:#010101;stroke-width:4;stroke-linecap:round;fill:none" y2="253.96" x2="155.2" y1="217.89" x1="155.2"/>
  <ellipse id="svg_4" style="stroke-linejoin:round;stroke:#010101;stroke-width:4;stroke-linecap:round;fill:none" rx="2" ry="3" cy="240" cx="114.2"/>
  <ellipse id="svg_6" style="stroke-linejoin:round;stroke:#010101;stroke-width:4;stroke-linecap:round;fill:none" rx="2" ry="3" cy="240" cx="197.2"/>
  <g id="bras_esquerra" transform="translate(-30.469 -39.001)">
   <path id="path266" style="stroke:#010101;stroke-width:4;stroke-linecap:round;fill:#f60" d="m82.522 166c11.738-12.39-74.901 82.72-42.941 116.58 24.941 26.421 47 39 56 30l-6-25s-28-20-19-29 19-19 19-28"/>
  
  <g id="g268">
   <path id="path270" style="stroke-linejoin:round;stroke:#010101;stroke-width:4;stroke-linecap:round;fill:#3f3f3f" d="m100.92 285.18c-12.368-3.434-23.364 5.033-29.446 16.896-6.954 13.571-1.587 30.228 11.98 37.182 13.568 6.955 18.728-4.306 25.683-17.873 2.314-4.519 9.197-17.371 10.842-20.579 3.466-6.762 6.521-12.126-0.242-15.593-5.588-2.864-14.725-4.4-18.817-0.033z"/>
   <path id="path2510_1_" style="stroke:#010101;stroke-width:4;stroke-linecap:round;fill:#3f3f3f" d="m103.28 329.47c-8.267-1.45-15.301-8.24-15.301-8.24"/>
   <path id="path2512_1_" style="stroke:#010101;stroke-width:4;stroke-linecap:round;fill:#3f3f3f" d="m110.11 320.05c-10.11-8.59-20.811-10.18-20.811-10.18"/>
   <path id="path2514_2_" style="stroke:#010101;stroke-width:4;stroke-linecap:round;fill:#3f3f3f" d="m114 309.54c-5.88-10.03-15.45-8.93-15.45-8.93"/>
   <path id="path2514_1_" style="stroke:#010101;stroke-width:4;stroke-linecap:round;fill:#3f3f3f" d="m119.58 298.65c-4.81-9.48-13.51-7.93-13.51-7.93"/>
   <path id="path3349_3_" style="fill:#3f3f3f;fill-opacity:.3137" d="m68.627 311.12c0.743 5.145 2.818 15.493 5.835 20.626 7.443 12.662 14.532 11.181 22.848 6.705-10.879-0.01-22.221-19.4-28.683-27.33z"/>
  </g></g>
  <path id="path2479" style="stroke-linejoin:round;stroke:#010101;stroke-width:4;stroke-linecap:round;fill:#3f3f3f" d="m81.835 27.977c-14.965 0-27.116 12.15-27.116 27.117 0 9.685 5.088 18.175 12.733 22.971-8.083 14.287-12.733 30.776-12.733 48.353 0 54.329 44.067 98.438 98.398 98.438 54.329 0 98.439-44.109 98.439-98.438 0-17.577-4.651-34.066-12.733-48.353 7.628-4.8 12.733-13.299 12.733-22.971 0-14.967-12.152-27.117-27.116-27.117-9.673 0-18.13 5.104-22.929 12.733-14.295-8.094-30.806-12.733-48.395-12.733-17.585 0-34.063 4.643-48.354 12.733-4.795-7.63-13.252-12.734-22.925-12.734z"/>
  <path id="path2483" style="stroke-linejoin:round;stroke:#010101;stroke-width:4;stroke-linecap:round;fill:#7f7f7f" d="m224.76 39.48c-5.438 0-10.188 2.865-12.897 7.147 8.318 5.602 15.478 12.755 21.075 21.075 4.268-2.712 7.112-7.503 7.112-12.931 0-8.438-6.852-15.291-15.29-15.291z"/>
  <path id="path2523" style="stroke-linejoin:round;stroke:#010101;stroke-width:4;stroke-linecap:round;fill:#7f7f7f" d="m81.775 39.48c5.438 0 10.188 2.865 12.897 7.147-8.317 5.602-15.478 12.755-21.074 21.075-4.269-2.712-7.113-7.503-7.113-12.931 0-8.438 6.852-15.291 15.29-15.291z"/>
  <path id="path3197" style="stroke-linejoin:round;stroke:#010101;stroke-width:4;stroke-linecap:round;fill:#3f3f3f" d="m177.4 41.784c10.329-6.026 6.848-35.613 1.938-37.745-4.407 15.867-8.815 22.161-16.498 27.138 2.178-9.828 0.615-23.342-6.677-29.178 0.73902 8.4-1.884 21.043-10.683 29.662-2.388-9.097-3.063-19.628-12.037-23.207 2.204 10.73-0.15601 17.419-2.794 24.631"/>
  <path id="path285" style="stroke-linejoin:round;stroke:#010101;stroke-width:4;stroke-linecap:round;fill:#7f7f7f" d="m209.54 126.97c0.21699-2.913 0.341-5.878 0.34-8.894v-0.091c-0.02-37.943-17.86-68.675-39.85-68.649-6.039 0.006-11.76 2.345-16.886 6.5-5.142-4.169-10.882-6.507-16.94-6.5-21.991 0.025-39.807 30.797-39.792 68.732v0.092c0.001 2.983 0.126 5.917 0.34 8.799-11.896 8.919-19.123 20.674-19.11 33.559v0.067c0.026 27.857 33.854 47.423 75.553 47.404 41.698-0.018 75.48-19.616 75.451-47.472v-0.064c-0.014-12.861-7.238-24.589-19.111-33.491z"/>
  <path id="path287" style="stroke-linejoin:round;stroke:#010101;stroke-width:4;stroke-linecap:round;fill:none" d="m138.14 175s6.375-0.5 17-0.5 17 0.5 17 0.5"/>
  <path id="path2398" style="fill:#010101" d="m169.52 122.84c-2.293 3.974-6.501 5.84-9.397 4.167s-3.385-6.249-1.091-10.222c2.293-3.973 6.501-5.838 9.397-4.166 2.897 1.673 3.385 6.249 1.091 10.221z"/>
  <path id="path2412" style="fill:#010101" d="m136.78 122.84c2.293 3.974 6.501 5.84 9.397 4.167s3.385-6.249 1.091-10.222c-2.293-3.973-6.501-5.838-9.397-4.166-2.897 1.673-3.385 6.249-1.091 10.221z"/>
  <g id="g295" transform="translate(-30.469 -39.001)">
   <path id="path2387" style="stroke-linejoin:round;stroke:#010101;stroke-width:4;stroke-linecap:round;fill:#fff" d="m180.26 126.84c0.008 11.501-9.309 20.831-20.811 20.838-11.5 0.008-20.831-9.31-20.838-20.81v-0.028c-0.008-11.501 9.31-20.831 20.811-20.839 11.501-0.007 20.83 9.31 20.838 20.811v0.028z"/>
   <path id="path2393" style="fill:#010101" d="m172.12 129.23c0.002 3.569-2.89 6.464-6.459 6.467-3.569 0.001-6.464-2.889-6.467-6.458v-0.009c-0.003-3.569 2.889-6.465 6.458-6.467 3.57-0.003 6.466 2.889 6.468 6.458v0.009z"/>
  </g>
  <g id="g299" transform="translate(-30.469 -39.001)">
   <path id="path2391" style="stroke-linejoin:round;stroke:#010101;stroke-width:4;stroke-linecap:round;fill:#fff" d="m228.61 126.84c0.008 11.501-9.309 20.831-20.811 20.838-11.501 0.008-20.831-9.31-20.838-20.81v-0.028c-0.008-11.501 9.309-20.831 20.811-20.839 11.5-0.007 20.831 9.31 20.838 20.811v0.028z"/>
   <path id="path2395" style="fill:#010101" d="m207.55 129.23c0 3.569-2.891 6.464-6.46 6.467-3.569 0.001-6.464-2.889-6.468-6.458v-0.009c-0.00099-3.569 2.891-6.465 6.459-6.467 3.57-0.003 6.465 2.889 6.469 6.458v0.009z"/>
  </g>
  <path id="path307" style="stroke-linejoin:round;stroke:#010101;stroke-width:4;stroke-linecap:round;fill:#3f3f3f" d="m182.12 313c2.805-13.632 16.412-20.055 30.869-20.055 16.533 0 29.951 13.418 29.951 29.95s-13.418 15.94-29.951 15.94c-5.504 0-21.311 0.28299-25.217 0.28299-8.24 0-14.928 0.29501-14.928-7.945 0-6.809 3.039-16.384 9.276-18.173z"/>
  <path id="path3349_4_" style="fill:#3f3f3f;fill-opacity:.3137" d="m236.44 303.75c2.541 4.4 7.004 13.519 7.004 18.964 0 13.432-8.865 15.548-21.055 15.874 12.109-5.048 12.051-25.588 14.051-34.838z"/>
  <path id="path2510_4_" style="stroke:#010101;stroke-width:4;stroke-linecap:round;fill:#3f3f3f" d="m223.68 337.19c2.688-8.696-0.38498-18.84-0.38498-18.84"/>
  <path id="path2512_4_" style="stroke:#010101;stroke-width:4;stroke-linecap:round;fill:#3f3f3f" d="m211.22 338.12c-3.295-14.01 0.47098-25.119 0.47098-25.119"/>
  <path id="path2514_8_" style="stroke:#010101;stroke-width:4;stroke-linecap:round;fill:#3f3f3f" d="m199.14 337.67c-6.76-10.63-0.97-19.32-0.97-19.32"/>
  <path id="path2514_7_" style="stroke:#010101;stroke-width:4;stroke-linecap:round;fill:#3f3f3f" d="m185.88 337.67c-6.764-9.33-0.96699-16.961-0.96699-16.961"/>
  <path id="path3327_4_" style="fill:#3f3f3f;fill-opacity:.3137" d="m182.6 314.72c-2.49 2.929-3.971 6.541-3.971 10.44 0 5.636 3.078 10.65 7.859 13.901-7.953-0.25901-13.658-1.671-13.658-9.324 0-6.343 3.904-11.907 9.77-15.017z"/>
  <path id="path317" style="stroke-linejoin:round;stroke:#010101;stroke-width:4;stroke-linecap:round;fill:#3f3f3f" d="m123.66 313c-2.805-13.632-16.413-20.055-30.87-20.055-16.532 0-29.95 13.418-29.95 29.95s13.418 15.94 29.95 15.94c5.505 0 21.311 0.28299 25.218 0.28299 8.24 0 14.927 0.29501 14.927-7.945-0.00099-6.809-3.039-16.384-9.275-18.173z"/>
  <path id="path2510_5_" style="stroke:#010101;stroke-width:4;stroke-linecap:round;fill:#3f3f3f" d="m82.085 337.19c-2.688-8.696 0.38401-18.84 0.38401-18.84"/>
  <path id="path2512_5_" style="stroke:#010101;stroke-width:4;stroke-linecap:round;fill:#3f3f3f" d="m94.555 338.12c3.294-14.01-0.471-25.119-0.471-25.119"/>
  <path id="path2514_10_" style="stroke:#010101;stroke-width:4;stroke-linecap:round;fill:#3f3f3f" d="m106.62 337.67c6.763-10.628 0.967-19.322 0.967-19.322"/>
  <path id="path2514_9_" style="stroke:#010101;stroke-width:4;stroke-linecap:round;fill:#3f3f3f" d="m119.9 337.67c6.763-9.33 0.96699-16.961 0.96699-16.961"/>
  <path id="path3327_5_" style="fill:#3f3f3f;fill-opacity:.3137" d="m122.8 314.47c2.582 2.959 4.117 6.608 4.117 10.548 0 5.693-3.19 10.76-8.147 14.044 8.243-0.262 14.157-1.688 14.157-9.42 0-6.409-4.047-12.031-10.127-15.172z"/>
  <!--<path id="path4307" d="m34.238 263.51c-6.231-4.73-11.93-9.76-18.654-16.48-9.9293-9.93-11.658-13.97-11.104-25.95 0.8815-19.06 14.764-47.03 39.717-80.03 8.1073-10.72 7.9684-10.544 8.2899-10.544 0.13742 0 0.39319 2.182 0.56837 4.8488 0.64215 9.7758 4.149 23.099 8.7199 33.13 6.9761 15.308 20.861 31.868 33.915 40.451 1.1945 0.78536 2.1664 1.5698 2.1598 1.7433-0.0067 0.17345-2.0398 0.96257-4.518 1.7536-9.7002 3.0962-19.839 8.961-23.682 13.699-3.2421 3.9968-4.1892 6.3944-4.2151 10.67-0.01278 2.108 0.15363 4.4652 0.36979 5.2381 0.3891 1.3914 0.36874 1.4054-2.0441 1.4082-1.3404 0.002-3.3149 0.2466-4.3878 0.54451-1.8454 0.51244-2.0798 0.43846-4.3438-1.3708-4.544-3.6312-11.106-10.765-12.765-13.878-2.5642-4.811-2.3657-5.6427 2.5784-10.801 9.0712-9.465 13.191-14.974 15.186-20.307 1.9444-5.1969 1.0743-9.2384-1.7153-7.9674-0.92267 0.4204-1.2647 1.099-1.5187 3.0136-0.72562 5.4682-4.6315 11.287-14.767 21.998-4.7081 4.9756-5.4644 6.0181-5.7506 7.9264-0.70728 4.7164 2.51 10.298 10.532 18.27l5.9273 5.8909-2.7494 1.9495c-3.6239 2.5695-7.811 7.716-10.505 12.912l-2.1776 4.1999-3.0662-2.3242z" style="stroke:#000;stroke-width:1.5331;fill:#f60"/>-->
  <!--<path id="path4311" d="m77.634 292.86-1.3736-1.1816 4.5099-8.6548c2.4805-4.7602 4.8887-9.2868 5.3518-10.059l0.84186-1.4044 1.1007 4.4706c0.60536 2.4588 2.1862 6.6552 3.513 9.3254s2.4977 5.0273 2.602 5.2381-1.1518 0.38667-2.7914 0.39083c-3.3305 0.008-8.6468 1.1259-10.9 2.2911-1.385 0.71624-1.5689 0.68943-2.8541-0.41599z" style="stroke:#000;stroke-width:1.5331;fill:#f60"/>-->
  <path id="path4313" d="m137.47 318.29c-4.8163-0.634-5.7291-0.90469-6.3737-1.89-0.41379-0.63248-1.5291-1.9036-2.4786-2.8247l-1.7262-1.6748 4.7782 0.33515c6.0365 0.4234 12.602-0.42118 18.452-2.3737l4.4747-1.4935 2.4243 0.9527c3.815 1.4992 9.7758 2.6572 15.6 3.0304l5.3564 0.34329-2.1116 2.3958c-1.9123 2.1697-2.425 2.4516-5.4333 2.9878-5.3088 0.94617-26.355 1.0812-32.962 0.21152z" style="stroke:#000;stroke-width:1.5331;fill:#f60"/>
  <g id="bras_dret">
   <path id="path250" style="stroke:#010101;stroke-width:4;stroke-linecap:round;fill:#f60" d="m253.79 127c-11.738-12.387 74.901 82.724 42.941 116.58-24.941 26.421-47 39-56 30l6-25s28-20 19-29-19-19-19-28"/>
   <g id="g4319">
    <path id="path255" style="stroke-linejoin:round;stroke:#010101;stroke-width:4;stroke-linecap:round;fill:#3f3f3f" d="m235.4 246.18c12.368-3.434 23.364 5.033 29.446 16.896 6.954 13.571 1.587 30.228-11.98 37.182-13.568 6.955-18.728-4.306-25.683-17.873-2.314-4.519-9.197-17.371-10.842-20.579-3.466-6.762-6.521-12.126 0.242-15.593 5.588-2.864 14.725-4.4 18.817-0.033z"/>
    <path id="path2510_6_" style="stroke:#010101;stroke-width:4;stroke-linecap:round;fill:#3f3f3f" d="m233.04 290.47c8.267-1.45 15.301-8.24 15.301-8.24"/>
    <path id="path2512_6_" style="stroke:#010101;stroke-width:4;stroke-linecap:round;fill:#3f3f3f" d="m226.2 281.05c10.112-8.599 20.813-10.182 20.813-10.182"/>
    <path id="path2514_12_" style="stroke:#010101;stroke-width:4;stroke-linecap:round;fill:#3f3f3f" d="m222.31 270.54c5.878-10.023 15.451-8.922 15.451-8.922"/>
    <path id="path2514_11_" style="stroke:#010101;stroke-width:4;stroke-linecap:round;fill:#3f3f3f" d="m216.73 259.65c4.812-9.477 13.512-7.93 13.512-7.93"/>
    <path id="path3349_1_" style="fill:#3f3f3f;fill-opacity:.3137" d="m267.69 272.12c-0.74301 5.145-2.818 15.493-5.835 20.626-7.443 12.662-14.532 11.181-22.848 6.705 10.879-0.008 22.221-19.395 28.683-27.331z"/>
    
   </g>
  </g>
  <path id="path4317" d="m141.32 221.94c-21.72-2.81-41.14-12.39-56.558-27.91-13.856-13.95-23.015-31.8-26.565-51.77-1.3085-7.3606-1.3344-24.655-0.04743-31.684 1.8091-9.8817 5.8956-21.885 9.8767-29.012 1.6803-3.0079 1.9734-5.2274 0.69039-5.2274-0.25184 0-1.9252-1.3726-3.7186-3.0502-10.168-9.509-10.729-25.081-1.263-35.089 5.0818-5.3732 10.748-7.85 17.959-7.85 8.6194 0 14.16 2.8263 20.825 10.624l1.8472 2.1608 6.3294-3.0504c3.4812-1.6777 8.8255-3.8819 11.876-4.8982l5.5471-1.8478 0.98852 1.0611c1.1387 1.2222 1.2006 1.2357 2.4934 0.54381 2.0993-1.1235 5.5543-15.787 4.8132-20.427l-0.28694-1.7966 1.3121 1.5331c1.6772 1.9598 2.8476 5.1399 4.6789 12.714 1.2557 5.1936 1.6458 6.152 2.6994 6.6321 1.1279 0.5139 1.4591 0.3108 3.9343-2.4129 4.3312-4.7659 7.6676-11.948 9.0855-19.557l0.65396-3.5094 1.0792 2.866c1.7246 4.5799 2.3262 10.452 1.6506 16.111-0.79945 6.6957 0.10731 7.7241 4.2599 4.8312 5.2794-3.6779 9.407-9.3264 12.584-17.221 1.0797-2.683 2.088-4.676 2.2407-4.4289 0.87144 1.41 1.455 8.0809 1.2336 14.1-0.30985 8.4219-1.1639 11.347-4.2878 14.687-1.9301 2.0634-2.2126 2.6164-1.7643 3.454 0.69697 1.3023 1.9364 1.7495 3.1092 1.1218 1.5089-0.80755 4.5282-4.6039 5.143-6.4666 0.31117-0.94285 0.65766-1.7143 0.76998-1.7143 0.74657 0 7.4438 2.8258 11.726 4.9474 4.6499 2.304 6.899 2.8581 6.899 1.6997 0-0.90143 5.4754-6.3789 7.979-7.9822 4.5894-2.9388 8.3801-3.9106 14.251-3.6535 6.178 0.2706 9.6749 1.4808 14.192 4.9116 3.8956 2.9586 7.1645 7.6689 8.5985 12.39 1.4278 4.7007 1.1983 12.006-0.51605 16.429-1.477 3.8106-4.9113 8.3226-8.1785 10.745-1.5044 1.1154-2.598 2.3271-2.598 2.8784 0 0.52367 1.3604 3.7962 3.0231 7.2723 6.5362 13.665 9.2418 25.763 9.2418 41.326 0 9.1363-0.86716 16.438-2.8526 24.019-9.9165 37.864-41.334 65.883-79.908 71.263-6.0764 0.84751-19.353 0.97276-25.046 0.23629zm29.618-12.99c15.028-2.2207 28.567-7.0483 39.094-13.94 5.0464-3.3037 12.91-11.3 15.485-15.747 1.1559-1.9958 2.7361-5.4453 3.5115-7.6655 1.2799-3.6644 1.41-4.6968 1.41-11.191 0-6.5047-0.12913-7.5258-1.4218-11.243-2.6774-7.6984-7.9356-15.376-14-20.441l-3.0591-2.5552-0.26818-11.243c-0.28-11.64-0.81-15.809-3.26-25.543-4.18-16.595-13.52-31.585-23.36-37.492-5.8678-3.5221-8.7352-4.3843-14.639-4.402-6.1357-0.01841-9.5336 0.86097-14.212 3.678l-2.8916 1.7412-3.8691-2.0616c-11.965-6.375-23.833-4.2723-34.267 6.071-5.0326 4.9891-7.5286 8.5033-11.115 15.649-6.3626 12.678-9.7903 28.871-9.7903 46.251v7.1018l-3.9066 3.7035c-13.728 13.015-18.204 28.818-12.41 43.82 7.1117 18.414 30.549 32.433 59.754 35.742 2.6702 0.30249 5.7747 0.64157 6.899 0.75352 4.1812 0.41635 21.134-0.21663 26.318-0.98265zm-93.244-143.21c3.7571-5.0358 10.156-11.408 15.208-15.144 2.7949-2.0669 3.9351-3.2302 3.9351-4.0148 0-1.8259-5.4505-6.7016-8.979-8.0322-4.1632-1.5699-10.047-1.3071-13.762 0.61473-3.4408 1.7799-6.5523 5.1057-8.2436 8.8114-1.1514 2.5226-1.392 3.7571-1.3709 7.0323 0.02188 3.398 0.25978 4.4483 1.6449 7.2618 1.7882 3.6324 5.6062 7.4313 7.4687 7.4313 0.8317 0 1.9498-1.0805 4.0986-3.9605zm159.08 1.533c3.9006-3.9046 4.9364-6.5585 4.9364-12.648 0-4.708-0.11919-5.3255-1.5139-7.8435-1.9867-3.5867-5.7499-6.9105-9.3703-8.2761-5.4856-2.0692-13.021-0.77933-17.223 2.9481-1.9537 1.7332-3.8328 4.3125-3.8328 5.2611 0 0.59396 1.4939 2.0744 3.9571 3.9213 5.0541 3.7896 11.318 10.054 15.108 15.108 3.651 4.8692 4.4489 5.0229 7.9386 1.5297z" style="stroke:#000;stroke-width:1.5331;fill:#f60"/>
 </g>
</svg>
