<?xml version="1.0" encoding="UTF-8" standalone="no"?>
<svg id="monosvg" xmlns:rdf="http://www.w3.org/1999/02/22-rdf-syntax-ns#" xmlns="http://www.w3.org/2000/svg" version="1.1" xmlns:cc="http://creativecommons.org/ns#" xmlns:xlink="http://www.w3.org/1999/xlink" xmlns:dc="http://purl.org/dc/elements/1.1/">
    <defs
          id="defs61" />
    <sodipodi:namedview
                        pagecolor="#ffffff"
                        bordercolor="#666666"
                        borderopacity="1"
                        objecttolerance="10"
                        gridtolerance="10"
                        guidetolerance="10"
                        inkscape:pageopacity="0"
                        inkscape:pageshadow="2"
                        inkscape:window-width="1920"
                        inkscape:window-height="1017"
                        id="namedview59"
                        showgrid="false"
                        inkscape:zoom="11.069419"
                        inkscape:cx="-14.133784"
                        inkscape:cy="18.622661"
                        inkscape:window-x="-8"
                        inkscape:window-y="-8"
                        inkscape:window-maximized="1"
                        inkscape:current-layer="g3817"
                        fit-margin-top="0"
                        fit-margin-left="0"
                        fit-margin-right="0"
                        fit-margin-bottom="0" />
    <metadata
              id="metadata193">
        <rdf:RDF>
            <cc:Work
                     rdf:about="">
                <dc:format>image/svg+xml</dc:format>
                <dc:type
                         rdf:resource="http://purl.org/dc/dcmitype/StillImage" />
                <dc:title></dc:title>
            </cc:Work>
        </rdf:RDF>
    </metadata>
    <g
       id="g3817"
       transform="translate(-18.605145,-338.05174)">
        <g
           id="g4253"
           transform="matrix(0.13078575,0,0,0.13078575,16.171857,332.61861)">
            <path
                  id="path2383"
                  style="fill:#3f3f3f;stroke:#010101;stroke-width:4;stroke-linecap:round;stroke-linejoin:round"
                  d="m 295.13,239.46 c 0.046,68.145 -55.158,123.42 -123.3,123.47 -68.145,0.046 -123.42,-55.158 -123.47,-123.3 l 0,-0.166 c -0.046,-68.144 55.159,-123.42 123.3,-123.47 68.144,-0.046 123.42,55.16 123.47,123.3 l 0,0.16398 z"
                  inkscape:connector-curvature="0" />
            <path
                  id="path3339"
                  style="fill:#3f3f3f;fill-opacity:0.3137"
                  d="m 279.92,180.84 c 3.203,10.975 4.906,22.589 4.906,34.594 0,68.108 -55.266,123.38 -123.38,123.38 -46.824,0 -87.598,-26.132 -108.5,-64.594 15.023,51.2 62.367,88.625 118.41,88.625 68.109,0 123.37,-55.267 123.37,-123.38 0,-21.21 -5.373,-41.187 -14.812,-58.625 z"
                  inkscape:connector-curvature="0" />
            <path
                  id="svg_1"
                  style="fill:#7f7f7f;stroke:#010101;stroke-width:4;stroke-linecap:round;stroke-linejoin:round"
                  d="m 107.89,300.84 c -0.24957,1.9098 -0.39287,3.8551 -0.39287,5.8321 l 0,0.0608 c 0.0185,24.878 20.631,45.034 46.044,45.016 6.9784,-0.004 13.589,-1.5382 19.513,-4.2622 5.9418,2.7341 12.574,4.2672 19.574,4.2622 25.413,-0.0165 46,-20.198 45.983,-45.077 l 0,-0.0596 c -0.002,-1.9568 -0.1456,-3.8805 -0.39288,-5.7713 13.746,-5.8486 22.098,-13.559 22.083,-22.008 l 0,-0.0444 c -0.0301,-18.269 -39.12,-31.101 -87.305,-31.089 -48.184,0.0127 -87.221,12.865 -87.189,31.134 l 0,0.0418 c 0.0173,8.4356 8.365,16.127 22.084,21.965 z"
                  inkscape:connector-curvature="0" />
            <line
                  id="svg_2"
                  style="fill:none;stroke:#010101;stroke-width:4;stroke-linecap:round;stroke-linejoin:round"
                  y2="295.5"
                  x2="173.8"
                  y1="259.42999"
                  x1="173.8" />
            <ellipse
                     id="svg_4"
                     style="fill:none;stroke:#010101;stroke-width:4;stroke-linecap:round;stroke-linejoin:round"
                     rx="2"
                     ry="3"
                     cy="281.54001"
                     cx="132.8" />
            <ellipse
                     id="svg_6"
                     style="fill:none;stroke:#010101;stroke-width:4;stroke-linecap:round;stroke-linejoin:round"
                     rx="2"
                     ry="3"
                     cy="281.54001"
                     cx="215.8" />
            <g
               id="bras_dret"
               transform="translate(-11.864,2.5424)">
                <g
                   id="g248">
                    <path
                          id="path250"
                          style="fill:#3f3f3f;stroke:#010101;stroke-width:4;stroke-linecap:round"
                          d="m 284.26,166 c -11.738,-12.387 74.901,82.724 42.941,116.58 -24.941,26.421 -47,39 -56,30 l 6,-25 c 0,0 28,-20 19,-29 -9,-9 -19,-19 -19,-28"
                          inkscape:connector-curvature="0" />
                    <path
                          id="path3349_2_"
                          style="fill:#3f3f3f;fill-opacity:0.3137"
                          d="m 324.76,232.75 c 1.75,-1 10,8.25 10,36 0,13.432 -45.061,47.424 -57.25,47.75 6.031,-2.515 62.75,-40 47.25,-83.75 z"
                          inkscape:connector-curvature="0" />
                </g>
                <path
                      id="path255"
                      style="fill:#3f3f3f;stroke:#010101;stroke-width:4;stroke-linecap:round;stroke-linejoin:round"
                      d="m 265.87,285.18 c 12.368,-3.434 23.364,5.033 29.446,16.896 6.954,13.571 1.587,30.228 -11.98,37.182 -13.568,6.955 -18.728,-4.306 -25.683,-17.873 -2.314,-4.519 -9.197,-17.371 -10.842,-20.579 -3.466,-6.762 -6.521,-12.126 0.242,-15.593 5.588,-2.864 14.725,-4.4 18.817,-0.033 z"
                      inkscape:connector-curvature="0" />
                <path
                      id="path2510_6_"
                      style="fill:#3f3f3f;stroke:#010101;stroke-width:4;stroke-linecap:round"
                      d="m 263.51,329.47 c 8.267,-1.45 15.301,-8.24 15.301,-8.24"
                      inkscape:connector-curvature="0" />
                <path
                      id="path2512_6_"
                      style="fill:#3f3f3f;stroke:#010101;stroke-width:4;stroke-linecap:round"
                      d="m 256.67,320.05 c 10.112,-8.599 20.813,-10.182 20.813,-10.182"
                      inkscape:connector-curvature="0" />
                <path
                      id="path2514_12_"
                      style="fill:#3f3f3f;stroke:#010101;stroke-width:4;stroke-linecap:round"
                      d="m 252.78,309.54 c 5.878,-10.023 15.451,-8.922 15.451,-8.922"
                      inkscape:connector-curvature="0" />
                <path
                      id="path2514_11_"
                      style="fill:#3f3f3f;stroke:#010101;stroke-width:4;stroke-linecap:round"
                      d="m 247.2,298.65 c 4.812,-9.477 13.512,-7.93 13.512,-7.93"
                      inkscape:connector-curvature="0" />
                <path
                      id="path3349_1_"
                      style="fill:#3f3f3f;fill-opacity:0.3137"
                      d="m 298.16,311.12 c -0.74301,5.145 -2.818,15.493 -5.835,20.626 -7.443,12.662 -14.532,11.181 -22.848,6.705 10.879,-0.008 22.221,-19.395 28.683,-27.331 z"
                      inkscape:connector-curvature="0" />
            </g>
            <g
               id="bras_esquerra">
                <g
                   transform="translate(-11.864,2.5424)"
                   id="g264">
                    <path
                          inkscape:connector-curvature="0"
                          d="M 82.522,166 C 94.26,153.61 7.621,248.72 39.581,282.58 c 24.941,26.421 47,39 56,30 l -6,-25 c 0,0 -28,-20 -19,-29 9,-9 19,-19 19,-28"
                          style="fill:#3f3f3f;stroke:#010101;stroke-width:4;stroke-linecap:round"
                          id="path266" />
                </g>
                <g
                   transform="translate(-11.864,2.5424)"
                   id="g268">
                    <path
                          inkscape:connector-curvature="0"
                          d="m 100.92,285.18 c -12.368,-3.434 -23.364,5.033 -29.446,16.896 -6.954,13.571 -1.587,30.228 11.98,37.182 13.568,6.955 18.728,-4.306 25.683,-17.873 2.314,-4.519 9.197,-17.371 10.842,-20.579 3.466,-6.762 6.521,-12.126 -0.242,-15.593 -5.588,-2.864 -14.725,-4.4 -18.817,-0.033 z"
                          style="fill:#3f3f3f;stroke:#010101;stroke-width:4;stroke-linecap:round;stroke-linejoin:round"
                          id="path270" />
                    <path
                          inkscape:connector-curvature="0"
                          d="m 103.28,329.47 c -8.267,-1.45 -15.301,-8.24 -15.301,-8.24"
                          style="fill:#3f3f3f;stroke:#010101;stroke-width:4;stroke-linecap:round"
                          id="path2510_1_" />
                    <path
                          inkscape:connector-curvature="0"
                          d="M 110.11,320.05 C 100,311.46 89.299,309.87 89.299,309.87"
                          style="fill:#3f3f3f;stroke:#010101;stroke-width:4;stroke-linecap:round"
                          id="path2512_1_" />
                    <path
                          inkscape:connector-curvature="0"
                          d="m 114,309.54 c -5.88,-10.03 -15.45,-8.93 -15.45,-8.93"
                          style="fill:#3f3f3f;stroke:#010101;stroke-width:4;stroke-linecap:round"
                          id="path2514_2_" />
                    <path
                          inkscape:connector-curvature="0"
                          d="m 119.58,298.65 c -4.81,-9.48 -13.51,-7.93 -13.51,-7.93"
                          style="fill:#3f3f3f;stroke:#010101;stroke-width:4;stroke-linecap:round"
                          id="path2514_1_" />
                    <path
                          inkscape:connector-curvature="0"
                          d="m 68.627,311.12 c 0.743,5.145 2.818,15.493 5.835,20.626 7.443,12.662 14.532,11.181 22.848,6.705 -10.879,-0.01 -22.221,-19.4 -28.683,-27.33 z"
                          style="fill:#3f3f3f;fill-opacity:0.3137"
                          id="path3349_3_" />
                </g>
            </g>
            <path
                  id="path2479"
                  style="fill:#3f3f3f;stroke:#010101;stroke-width:4;stroke-linecap:round;stroke-linejoin:round"
                  d="m 100.44,69.52 c -14.965,0 -27.116,12.15 -27.116,27.117 0,9.685 5.088,18.175 12.733,22.971 -8.083,14.287 -12.733,30.776 -12.733,48.353 0,54.329 44.067,98.438 98.398,98.438 54.329,0 98.439,-44.109 98.439,-98.438 0,-17.577 -4.651,-34.066 -12.733,-48.353 7.628,-4.8 12.733,-13.299 12.733,-22.971 0,-14.967 -12.152,-27.117 -27.116,-27.117 -9.673,0 -18.13,5.104 -22.929,12.733 C 205.821,74.159 189.31,69.52 171.721,69.52 c -17.585,0 -34.063,4.643 -48.354,12.733 C 118.57,74.624 110.113,69.52 100.44,69.52 Z"
                  inkscape:connector-curvature="0" />
            <path
                  id="path2483"
                  style="fill:#7f7f7f;stroke:#010101;stroke-width:4;stroke-linecap:round;stroke-linejoin:round"
                  d="m 243.37,81.023 c -5.438,0 -10.188,2.865 -12.897,7.147 8.318,5.602 15.478,12.755 21.075,21.075 4.268,-2.712 7.112,-7.503 7.112,-12.931 0,-8.438 -6.852,-15.291 -15.29,-15.291 z"
                  inkscape:connector-curvature="0" />
            <path
                  id="path2523"
                  style="fill:#7f7f7f;stroke:#010101;stroke-width:4;stroke-linecap:round;stroke-linejoin:round"
                  d="m 100.38,81.023 c 5.438,0 10.188,2.865 12.897,7.147 -8.317,5.602 -15.478,12.755 -21.074,21.075 -4.269,-2.712 -7.113,-7.503 -7.113,-12.931 0,-8.438 6.852,-15.291 15.29,-15.291 z"
                  inkscape:connector-curvature="0" />
            <path
                  id="path3197"
                  style="fill:#3f3f3f;stroke:#010101;stroke-width:4;stroke-linecap:round;stroke-linejoin:round"
                  d="m 196,83.327 c 10.329,-6.026 6.848,-35.613 1.938,-37.745 -4.407,15.867 -8.815,22.161 -16.498,27.138 2.178,-9.828 0.615,-23.342 -6.677,-29.178 0.73902,8.4 -1.884,21.043 -10.683,29.662 -2.388,-9.097 -3.063,-19.628 -12.037,-23.207 2.204,10.73 -0.15601,17.419 -2.794,24.631"
                  inkscape:connector-curvature="0" />
            <path
                  id="path285"
                  style="fill:#7f7f7f;stroke:#010101;stroke-width:4;stroke-linecap:round;stroke-linejoin:round"
                  d="m 228.14,168.51 c 0.21699,-2.913 0.341,-5.878 0.34,-8.894 l 0,-0.091 c -0.015,-37.935 -17.854,-68.667 -39.845,-68.641 -6.039,0.006 -11.76,2.345 -16.886,6.5 -5.142,-4.169 -10.882,-6.507 -16.94,-6.5 -21.991,0.025 -39.807,30.797 -39.792,68.732 l 0,0.092 c 0.001,2.983 0.126,5.917 0.34,8.799 -11.896,8.919 -19.123,20.674 -19.11,33.559 l 0,0.067 c 0.026,27.857 33.854,47.423 75.553,47.404 41.698,-0.018 75.48,-19.616 75.451,-47.472 l 0,-0.064 C 247.237,189.14 240.013,177.412 228.14,168.51 Z"
                  inkscape:connector-curvature="0" />
            <path
                  id="path287"
                  style="fill:none;stroke:#010101;stroke-width:4;stroke-linecap:round;stroke-linejoin:round"
                  d="m 156.75,216.54 c 0,0 6.375,-0.5 17,-0.5 10.625,0 17,0.5 17,0.5"
                  inkscape:connector-curvature="0" />
            <path
                  id="path2398"
                  style="fill:#010101"
                  d="m 188.12,164.38 c -2.293,3.974 -6.501,5.84 -9.397,4.167 -2.896,-1.673 -3.385,-6.249 -1.091,-10.222 2.293,-3.973 6.501,-5.838 9.397,-4.166 2.897,1.673 3.385,6.249 1.091,10.221 z"
                  inkscape:connector-curvature="0" />
            <path
                  id="path2412"
                  style="fill:#010101"
                  d="m 155.38,164.38 c 2.293,3.974 6.501,5.84 9.397,4.167 2.896,-1.673 3.385,-6.249 1.091,-10.222 -2.293,-3.973 -6.501,-5.838 -9.397,-4.166 -2.897,1.673 -3.385,6.249 -1.091,10.221 z"
                  inkscape:connector-curvature="0" />
            <g
               id="g295"
               transform="translate(-11.864,2.5424)">
                <path
                      id="path2387"
                      style="fill:#ffffff;stroke:#010101;stroke-width:4;stroke-linecap:round;stroke-linejoin:round"
                      d="m 180.26,126.84 c 0.008,11.501 -9.309,20.831 -20.811,20.838 -11.5,0.008 -20.831,-9.31 -20.838,-20.81 l 0,-0.028 c -0.008,-11.501 9.31,-20.831 20.811,-20.839 11.501,-0.007 20.83,9.31 20.838,20.811 l 0,0.028 z"
                      inkscape:connector-curvature="0" />
                <path
                      id="path2393"
                      style="fill:#010101"
                      d="m 172.12,129.23 c 0.002,3.569 -2.89,6.464 -6.459,6.467 -3.569,0.001 -6.464,-2.889 -6.467,-6.458 l 0,-0.009 c -0.003,-3.569 2.889,-6.465 6.458,-6.467 3.57,-0.003 6.466,2.889 6.468,6.458 l 0,0.009 z"
                      inkscape:connector-curvature="0" />
            </g>
            <g
               id="g299"
               transform="translate(-11.864,2.5424)">
                <path
                      id="path2391"
                      style="fill:#ffffff;stroke:#010101;stroke-width:4;stroke-linecap:round;stroke-linejoin:round"
                      d="m 228.61,126.84 c 0.008,11.501 -9.309,20.831 -20.811,20.838 -11.501,0.008 -20.831,-9.31 -20.838,-20.81 l 0,-0.028 c -0.008,-11.501 9.309,-20.831 20.811,-20.839 11.5,-0.007 20.831,9.31 20.838,20.811 l 0,0.028 z"
                      inkscape:connector-curvature="0" />
                <path
                      id="path2395"
                      style="fill:#010101"
                      d="m 207.55,129.23 c 0,3.569 -2.891,6.464 -6.46,6.467 -3.569,0.001 -6.464,-2.889 -6.468,-6.458 l 0,-0.009 c -9.9e-4,-3.569 2.891,-6.465 6.459,-6.467 3.57,-0.003 6.465,2.889 6.469,6.458 l 0,0.009 z"
                      inkscape:connector-curvature="0" />
            </g>
            <path
                  id="path307"
                  style="fill:#3f3f3f;stroke:#010101;stroke-width:4;stroke-linecap:round;stroke-linejoin:round"
                  d="m 200.72,354.54 c 2.805,-13.632 16.412,-20.055 30.869,-20.055 16.533,0 29.951,13.418 29.951,29.95 0,16.532 -13.418,15.94 -29.951,15.94 -5.504,0 -21.311,0.28299 -25.217,0.28299 -8.24,0 -14.928,0.29501 -14.928,-7.945 0,-6.809 3.039,-16.384 9.276,-18.173 z"
                  inkscape:connector-curvature="0" />
            <path
                  id="path3349_4_"
                  style="fill:#3f3f3f;fill-opacity:0.3137"
                  d="m 255.04,345.29 c 2.541,4.4 7.004,13.519 7.004,18.964 0,13.432 -8.865,15.548 -21.055,15.874 12.109,-5.048 12.051,-25.588 14.051,-34.838 z"
                  inkscape:connector-curvature="0" />
            <path
                  id="path2510_4_"
                  style="fill:#3f3f3f;stroke:#010101;stroke-width:4;stroke-linecap:round"
                  d="m 242.29,378.73 c 2.688,-8.696 -0.38498,-18.84 -0.38498,-18.84"
                  inkscape:connector-curvature="0" />
            <path
                  id="path2512_4_"
                  style="fill:#3f3f3f;stroke:#010101;stroke-width:4;stroke-linecap:round"
                  d="m 229.82,379.66 c -3.295,-14.01 0.47098,-25.119 0.47098,-25.119"
                  inkscape:connector-curvature="0" />
            <path
                  id="path2514_8_"
                  style="fill:#3f3f3f;stroke:#010101;stroke-width:4;stroke-linecap:round"
                  d="m 217.75,379.21 c -6.76,-10.63 -0.97,-19.32 -0.97,-19.32"
                  inkscape:connector-curvature="0" />
            <path
                  id="path2514_7_"
                  style="fill:#3f3f3f;stroke:#010101;stroke-width:4;stroke-linecap:round"
                  d="m 204.48,379.21 c -6.764,-9.33 -0.96699,-16.961 -0.96699,-16.961"
                  inkscape:connector-curvature="0" />
            <path
                  id="path3327_4_"
                  style="fill:#3f3f3f;fill-opacity:0.3137"
                  d="m 201.21,356.26 c -2.49,2.929 -3.971,6.541 -3.971,10.44 0,5.636 3.078,10.65 7.859,13.901 -7.953,-0.25901 -13.658,-1.671 -13.658,-9.324 0,-6.343 3.904,-11.907 9.77,-15.017 z"
                  inkscape:connector-curvature="0" />
            <path
                  id="path317"
                  style="fill:#3f3f3f;stroke:#010101;stroke-width:4;stroke-linecap:round;stroke-linejoin:round"
                  d="m 142.27,354.54 c -2.805,-13.632 -16.413,-20.055 -30.87,-20.055 -16.532,0 -29.95,13.418 -29.95,29.95 0,16.532 13.418,15.94 29.95,15.94 5.505,0 21.311,0.28299 25.218,0.28299 8.24,0 14.927,0.29501 14.927,-7.945 -9.9e-4,-6.809 -3.039,-16.384 -9.275,-18.173 z"
                  inkscape:connector-curvature="0" />
            <path
                  id="path2510_5_"
                  style="fill:#3f3f3f;stroke:#010101;stroke-width:4;stroke-linecap:round"
                  d="m 100.69,378.73 c -2.688,-8.696 0.38401,-18.84 0.38401,-18.84"
                  inkscape:connector-curvature="0" />
            <path
                  id="path2512_5_"
                  style="fill:#3f3f3f;stroke:#010101;stroke-width:4;stroke-linecap:round"
                  d="m 113.16,379.66 c 3.294,-14.01 -0.471,-25.119 -0.471,-25.119"
                  inkscape:connector-curvature="0" />
            <path
                  id="path2514_10_"
                  style="fill:#3f3f3f;stroke:#010101;stroke-width:4;stroke-linecap:round"
                  d="m 125.23,379.21 c 6.763,-10.628 0.967,-19.322 0.967,-19.322"
                  inkscape:connector-curvature="0" />
            <path
                  id="path2514_9_"
                  style="fill:#3f3f3f;stroke:#010101;stroke-width:4;stroke-linecap:round"
                  d="m 138.5,379.21 c 6.763,-9.33 0.96699,-16.961 0.96699,-16.961"
                  inkscape:connector-curvature="0" />
            <path
                  id="path3327_5_"
                  style="fill:#3f3f3f;fill-opacity:0.3137"
                  d="m 141.41,356.01 c 2.582,2.959 4.117,6.608 4.117,10.548 0,5.693 -3.19,10.76 -8.147,14.044 8.243,-0.262 14.157,-1.688 14.157,-9.42 0,-6.409 -4.047,-12.031 -10.127,-15.172 z"
                  inkscape:connector-curvature="0" />
        </g>
        <path
              style="fill:#d45500;fill-opacity:1;stroke:#000000;stroke-width:0.27101696;stroke-miterlimit:4;stroke-dasharray:none;stroke-opacity:1"
              d="M 4.0970667,34.154406 C 3.6778827,33.823791 2.8558006,33.085114 2.2702178,32.512902 1.4379852,31.699673 1.142119,31.343728 0.91513311,30.882654 0.63694579,30.317576 0.62475171,30.247161 0.6249202,29.206824 c 1.3641e-4,-0.845013 0.0452439,-1.25083 0.203294,-1.828992 0.7367999,-2.695278 2.8680944,-6.365217 5.8903817,-10.142823 l 0.1806901,-0.225848 0.00201,0.417277 c 0.00274,0.570136 0.2309782,1.854402 0.5038096,2.834927 0.3025107,1.087187 1.3397251,3.157439 2.0604672,4.112635 0.6645322,0.880702 2.2487402,2.444319 2.8816592,2.844205 0.235281,0.148653 0.427779,0.290604 0.427776,0.315448 -5e-6,0.02484 -0.375969,0.178128 -0.835474,0.340634 -1.648043,0.582833 -2.7629454,1.364761 -3.1897409,2.2371 -0.2043728,0.417723 -0.235793,0.5824 -0.2045971,1.072323 l 0.036856,0.57881 -0.3650941,0.05802 C 8.0161552,31.852453 7.7625631,31.900809 7.6534188,31.927997 7.4948031,31.96751 7.2823282,31.810411 6.5947635,31.145254 5.8032018,30.37949 5.2772019,29.633703 5.2772019,29.277153 c 0,-0.06498 0.3304516,-0.473685 0.7343368,-0.908237 0.9623822,-1.035455 1.4784847,-1.713039 1.7515578,-2.2996 0.2637187,-0.566468 0.29991,-1.197478 0.07366,-1.284299 -0.2129544,-0.08172 -0.319656,0.05918 -0.4567049,0.603074 -0.1551997,0.615928 -0.7160073,1.425481 -1.7841079,2.57545 -0.7969202,0.858002 -0.8607759,0.954239 -0.8607759,1.297269 0,0.580201 0.4563597,1.326257 1.3586531,2.221122 L 6.883589,32.265198 6.5422876,32.512435 C 6.074398,32.851373 5.5651384,33.471529 5.1811345,34.169993 l -0.3219148,0.585531 -0.762153,-0.601118 z"
              id="path4310"
              inkscape:connector-curvature="0"
              transform="translate(18.605145,338.05174)" />
        <path
              style="fill:#d45500;fill-opacity:1;stroke:#000000;stroke-width:0.27101696;stroke-miterlimit:4;stroke-dasharray:none;stroke-opacity:1"
              d="M 34.834535,34.178906 C 34.510924,33.554748 33.717271,32.62058 33.338293,32.417757 l -0.239191,-0.128011 0.857984,-0.873282 c 0.989555,-1.007201 1.366587,-1.670645 1.286929,-2.264539 -0.03887,-0.28978 -0.19248,-0.50596 -0.876322,-1.233255 -1.045203,-1.111617 -1.68576,-2.052099 -1.767098,-2.594499 -0.06683,-0.445688 -0.211414,-0.623969 -0.436096,-0.537751 -0.22116,0.08487 -0.184548,0.720418 0.07342,1.274481 0.286404,0.615144 0.758704,1.239691 1.712923,2.265092 0.688692,0.740067 0.772495,0.866197 0.720273,1.084068 -0.118649,0.495004 -0.344935,0.806076 -1.217615,1.673833 -0.877779,0.872829 -0.895039,0.884381 -1.230864,0.823772 -0.468613,-0.08458 -0.46287,-0.07641 -0.362383,-0.515535 0.07013,-0.306455 0.05616,-0.506829 -0.0642,-0.920855 -0.301917,-1.038558 -1.513623,-1.948484 -3.550228,-2.666029 L 27.319782,27.478979 27.8393,27.111674 c 1.273742,-0.900552 2.603185,-2.371681 3.496482,-3.869123 0.986905,-1.654361 1.577293,-3.473191 1.811869,-5.581902 l 0.05817,-0.522919 0.517163,0.658428 c 3.000319,3.819862 5.134011,7.747449 5.619681,10.344406 0.16763,0.89635 0.07443,2.047055 -0.217235,2.682047 -0.350266,0.762581 -2.079838,2.498636 -3.676709,3.69049 l -0.317892,0.237265 -0.296288,-0.57146 z"
              id="path4312"
              inkscape:connector-curvature="0"
              transform="translate(18.605145,338.05174)" />
        <path
              style="fill:#d45500;fill-opacity:1;stroke:#000000;stroke-width:0.27101696;stroke-miterlimit:4;stroke-dasharray:none;stroke-opacity:1"
              d="M 19.144236,29.057289 C 17.962052,28.982311 17.273107,28.850187 16.112938,28.475953 14.193456,27.856788 12.44762,26.753647 10.994008,25.241455 9.2672255,23.445086 8.2325065,21.488647 7.7002486,19.01364 7.4187643,17.704733 7.4167194,15.319352 7.6959967,14.053842 c 0.2472351,-1.120317 0.584331,-2.100249 1.0259649,-2.982463 0.1922126,-0.383967 0.3494775,-0.762149 0.3494775,-0.840403 0,-0.07826 -0.2377793,-0.3624233 -0.5283985,-0.6314854 C 7.785298,8.8979546 7.4914847,8.2299347 7.4909263,7.2073817 7.4905701,6.5551705 7.5286034,6.3578508 7.7434115,5.8974664 8.4567237,4.368671 10.08528,3.6418532 11.699132,4.1320455 c 0.586474,0.1781361 0.727412,0.2686991 1.283386,0.8246731 0.343508,0.3435088 0.669743,0.6245614 0.724965,0.6245614 0.05522,0 0.427053,-0.1595327 0.82629,-0.3545171 0.399238,-0.1949843 1.047677,-0.4624917 1.440977,-0.5944608 0.598742,-0.200904 0.74841,-0.2221114 0.91988,-0.1303435 0.112634,0.06028 0.258912,0.088832 0.325062,0.063448 0.193052,-0.074081 0.549517,-1.3172148 0.595418,-2.076458 0.02322,-0.3840918 0.07798,-0.6762448 0.121696,-0.6492291 0.163507,0.1010524 0.366852,0.6191435 0.610781,1.5561643 0.299182,1.1492721 0.419805,1.233461 0.94088,0.6566924 0.436793,-0.4834777 0.848474,-1.3185163 1.062387,-2.1549081 0.0961,-0.3757536 0.189967,-0.6984249 0.208589,-0.7170474 0.01862,-0.018622 0.105262,0.2299252 0.192533,0.5523283 0.121926,0.450434 0.148804,0.8080879 0.116059,1.5443617 -0.03742,0.8414372 -0.02364,0.968329 0.113127,1.0415246 0.188626,0.1009497 0.67798,-0.2289053 1.199956,-0.8088467 0.315379,-0.3504017 0.934222,-1.4868851 1.093338,-2.0078769 0.06334,-0.2074064 0.06649,-0.2061444 0.147335,0.059084 0.155373,0.5097404 0.200608,1.6301637 0.09118,2.2585241 -0.122861,0.7055198 -0.269983,1.0310117 -0.607463,1.3439397 -0.247366,0.2293705 -0.243834,0.4668284 0.0084,0.5636132 0.206423,0.079212 0.650431,-0.288268 0.834069,-0.6903115 0.199674,-0.4371517 0.242291,-0.4329594 1.464342,0.1440502 0.466251,0.220148 0.8874,0.400269 0.935885,0.400269 0.04849,0 0.323507,-0.2442856 0.611159,-0.5428571 0.755686,-0.7843731 1.341038,-1.0380751 2.395089,-1.0380751 0.738738,0 0.871354,0.027767 1.418084,0.2969215 1.292414,0.6362531 1.985145,1.9842811 1.765216,3.4350397 -0.111893,0.7381017 -0.408391,1.27266 -1.048908,1.8910853 l -0.584214,0.5640633 0.410823,0.83619 c 0.861193,1.752875 1.25628,3.511646 1.252062,5.573683 -0.0069,3.374208 -1.277547,6.43263 -3.662912,8.816554 -2.610778,2.609202 -6.01728,3.8808 -9.760355,3.643404 z m 3.071525,-1.718058 c 3.788683,-0.441154 6.86679,-2.378087 7.730591,-4.864561 0.296831,-0.854435 0.29636,-2.068145 -0.0012,-2.976645 -0.27253,-0.832209 -0.897194,-1.781047 -1.637301,-2.486988 l -0.562487,-0.536523 -0.02258,-1.268438 C 27.638768,10.483781 25.539449,6.6657426 22.78038,6.2172279 22.078335,6.1031032 21.356229,6.2309259 20.634829,6.59702 L 20.047625,6.8950122 19.460422,6.5966889 c -3.587615,-1.8226552 -7.13678,2.5919715 -7.13678,8.8770791 l 0,1.030014 -0.371195,0.29786 c -0.49777,0.399425 -1.172747,1.260013 -1.512235,1.928082 -0.370902,0.729887 -0.555722,1.479632 -0.555722,2.254352 0,4.27255 5.568865,7.14257 12.331271,6.355155 z M 10.222429,8.5398817 C 10.777011,7.8358609 11.390027,7.2237612 12.12038,6.6447672 12.43092,6.3985834 12.684998,6.1538927 12.684998,6.10101 c 0,-0.2076217 -0.452457,-0.672108 -0.882924,-0.9063976 C 11.199082,4.8664229 10.668632,4.8013879 10.056303,4.9805745 8.698825,5.377815 8.037201,6.9075021 8.6719378,8.1812527 c 0.2525286,0.5067589 0.6766739,0.9232476 0.9402203,0.9232476 0.095346,0 0.3540362,-0.2393389 0.6102709,-0.5646186 z m 20.697088,0.336651 c 0.149009,-0.1253822 0.375716,-0.4382582 0.503796,-0.69528 0.852268,-1.7102795 -0.65894,-3.6572815 -2.516093,-3.2416689 -0.546668,0.122339 -1.196328,0.5649332 -1.406975,0.9585312 -0.13255,0.247671 -0.128023,0.257413 0.26825,0.5773317 0.71462,0.576925 1.729005,1.576214 2.141476,2.1096044 0.450126,0.5820861 0.609497,0.6281006 1.009546,0.2914816 z"
              id="path4318"
              inkscape:connector-curvature="0"
              transform="translate(18.605145,338.05174)" />
        <path
              style="fill:#d45500;fill-opacity:1;stroke:#000000;stroke-width:0.27101696;stroke-miterlimit:4;stroke-dasharray:none;stroke-opacity:1"
              d="m 10.085939,38.268627 c -0.08071,-0.08071 0.05819,-0.420249 0.587506,-1.436106 l 0.693211,-1.330403 0.160932,0.64564 c 0.08851,0.355102 0.300102,0.920045 0.470199,1.255428 l 0.309266,0.609789 -0.293441,0 c -0.161392,0 -0.61134,0.08131 -0.999885,0.180677 -0.831079,0.212555 -0.793264,0.209499 -0.927788,0.07498 z"
              id="path4340"
              inkscape:connector-curvature="0"
              transform="translate(18.605145,338.05174)" />
        <path
              style="fill:#d45500;fill-opacity:1;stroke:#000000;stroke-width:0.27101696;stroke-miterlimit:4;stroke-dasharray:none;stroke-opacity:1"
              d="m 17.87949,41.602589 c -0.577502,-0.08225 -0.659779,-0.12152 -0.948223,-0.452615 l -0.315849,-0.362554 0.541697,0.04531 c 0.724268,0.06058 1.752587,-0.0619 2.439849,-0.290607 l 0.561238,-0.186768 0.798772,0.231475 c 0.556009,0.161125 1.039168,0.235208 1.589754,0.243757 l 0.79098,0.01228 -0.267372,0.273475 c -0.147054,0.150411 -0.267372,0.301091 -0.267372,0.334845 0,0.228334 -3.604902,0.339189 -4.923474,0.151402 z"
              id="path4342"
              inkscape:connector-curvature="0"
              transform="translate(18.605145,338.05174)" />
        <path
              style="fill:#d45500;fill-opacity:1;stroke:#000000;stroke-width:0.27101696;stroke-miterlimit:4;stroke-dasharray:none;stroke-opacity:1"
              d="m 29.429896,38.330357 c -0.1562,-0.06595 -0.51191,-0.167222 -0.790466,-0.22505 -0.278556,-0.05783 -0.506466,-0.133867 -0.506466,-0.168975 0,-0.03511 0.06448,-0.15589 0.143287,-0.268403 0.07881,-0.112514 0.255314,-0.51185 0.392237,-0.887414 l 0.248952,-0.682843 0.17579,0.302693 c 0.09669,0.166482 0.346201,0.632528 0.554479,1.035658 0.355932,0.688919 0.369298,0.741414 0.222438,0.873602 -0.134404,0.120976 -0.195958,0.123875 -0.440251,0.02073 z"
              id="path4344"
              inkscape:connector-curvature="0"
              transform="translate(18.605145,338.05174)" />
        <path
              style="fill:#7f7f7f;fill-opacity:1;stroke:#000000;stroke-width:0.06775424;stroke-miterlimit:4;stroke-dasharray:none;stroke-opacity:1"
              d="M 7.6335309,39.245636 C 7.1121275,39.13091 6.4925811,38.744621 6.0811613,38.277728 5.4767005,37.591766 5.1674797,36.663045 5.2484441,35.776726 c 0.04417,-0.483531 0.153809,-0.8512 0.3889434,-1.304305 0.5904125,-1.137725 1.4987349,-1.903591 2.4564429,-2.071186 0.2423593,-0.04241 0.5743151,-0.04107 0.8044462,0.0032 0.3736714,0.07196 0.3928958,0.07065 0.5197848,-0.03555 0.2247135,-0.188065 0.422356,-0.248401 0.8154026,-0.248923 0.297288,-3.96e-4 0.559924,0.04169 0.861379,0.138029 0.477602,0.152633 0.76495,0.342744 0.820033,0.542538 0.03559,0.12908 0.0019,0.333709 -0.09604,0.58402 l -0.07306,0.186648 -0.05601,-0.07647 c -0.122159,-0.166776 -0.469575,-0.48908 -0.623348,-0.578291 -0.323409,-0.187624 -0.748225,-0.293979 -1.0873266,-0.272217 -0.1941016,0.01246 -0.2670761,0.05261 -0.3316619,0.182508 -0.034675,0.06974 -0.037156,0.09572 -0.015431,0.161543 0.014238,0.04314 0.056479,0.104182 0.093868,0.135643 0.062587,0.05266 0.08547,0.0572 0.2884815,0.0572 0.597078,0 1.035914,0.26621 1.361343,0.825828 l 0.07966,0.136994 -0.227151,0.429668 -0.227151,0.429669 -0.08445,-0.106842 c -0.466191,-0.589776 -1.1740595,-0.947436 -1.8751338,-0.947436 -0.2295261,0 -0.3151433,0.0313 -0.3686495,0.134769 -0.052144,0.100836 -0.043359,0.212307 0.022942,0.291101 0.072942,0.08669 0.1579015,0.111886 0.3849516,0.114178 0.5788278,0.0058 1.1490167,0.340992 1.5236087,0.895559 l 0.107784,0.159569 -0.202684,0.388136 -0.202684,0.388137 -0.207362,-0.143625 C 9.4253714,35.710039 8.5600518,35.327822 7.8511494,35.183815 c -0.1850463,-0.03759 -0.2606187,-0.02518 -0.3419442,0.05614 -0.084544,0.08454 -0.1060263,0.19344 -0.058089,0.29446 0.048482,0.102168 0.1173614,0.137618 0.3856772,0.198495 0.4660538,0.10574 1.0222773,0.32767 1.4856745,0.592774 0.302454,0.173031 0.6909231,0.435378 0.7070971,0.477528 0.0056,0.01469 -0.094103,0.227801 -0.2216475,0.473571 L 9.576018,37.723641 9.4968718,37.709336 C 9.3324153,37.679612 8.9424413,37.535685 8.7282532,37.425664 8.4431233,37.279202 8.0946906,37.046325 7.8367936,36.82985 7.608862,36.638528 7.5354937,36.611369 7.4088843,36.671449 c -0.099379,0.04716 -0.1480017,0.133386 -0.1480017,0.262468 0,0.08757 0.011396,0.107046 0.1260628,0.21548 0.4148421,0.392291 1.1355414,0.822908 1.6694244,0.997479 0.1463856,0.04787 0.2024075,0.0764 0.2002064,0.101969 -0.00584,0.06785 -0.2691569,0.410317 -0.4712233,0.612862 -0.3646741,0.365539 -0.7109036,0.480945 -1.151822,0.383929 z"
              id="path4358"
              inkscape:connector-curvature="0"
              transform="translate(18.605145,338.05174)" />
        <path
              style="fill:#7f7f7f;fill-opacity:1;stroke:#000000;stroke-width:0.06775424;stroke-miterlimit:4;stroke-dasharray:none;stroke-opacity:1"
              d="m 14.662997,44.072698 -0.355745,-0.0068 0.06491,-0.129289 c 0.207731,-0.413741 0.309549,-0.990727 0.254145,-1.440201 -0.04475,-0.363045 -0.171675,-0.759363 -0.312992,-0.977305 -0.115888,-0.178726 -0.316576,-0.199469 -0.445658,-0.04606 -0.07539,0.08959 -0.07621,0.215796 -0.0022,0.342801 0.150525,0.258451 0.22465,0.566992 0.226139,0.941289 0.0017,0.434034 -0.08393,0.752416 -0.311945,1.159459 l -0.08651,0.154438 -0.500292,-0.01609 c -0.275161,-0.0088 -0.502347,-0.01773 -0.504858,-0.01973 -0.0025,-0.002 0.01452,-0.120627 0.03784,-0.263607 0.144219,-0.884103 0.102788,-1.874302 -0.114708,-2.741486 -0.05549,-0.221262 -0.119097,-0.315966 -0.233397,-0.347526 -0.104392,-0.02882 -0.184826,-0.0083 -0.259343,0.06624 -0.09065,0.09065 -0.09688,0.161523 -0.03458,0.393496 0.213215,0.793936 0.244528,1.764984 0.08648,2.681938 l -0.03795,0.220201 -0.568762,0 -0.568763,0 -0.03694,-0.153057 c -0.06618,-0.274185 -0.08786,-0.484381 -0.08788,-0.851964 -2e-5,-0.407427 0.02523,-0.646069 0.109904,-1.038898 0.08616,-0.399701 0.08701,-0.416813 0.02535,-0.508157 -0.102088,-0.15123 -0.325115,-0.161337 -0.430341,-0.0195 -0.05051,0.06808 -0.109185,0.294827 -0.17746,0.685753 -0.06719,0.384694 -0.08429,1.147113 -0.03344,1.490593 0.02023,0.136638 0.04292,0.2713 0.05042,0.299248 0.01249,0.04653 0.006,0.05082 -0.07709,0.05082 -0.126561,0 -0.5931957,-0.08203 -0.775535,-0.136335 -0.5352201,-0.159396 -0.8756734,-0.493641 -0.9998399,-0.98161 -0.093579,-0.36776 -0.089944,-0.961785 0.00866,-1.415258 0.264224,-1.215153 1.1495978,-2.236383 2.3038719,-2.657388 0.51234,-0.186869 1.056096,-0.256389 1.65135,-0.211127 1.099299,0.08359 1.993017,0.4246 2.593676,0.989657 0.405172,0.381157 0.637888,0.793317 0.791035,1.400995 0.02416,0.09588 0.130336,0.210557 0.19494,0.210557 0.06669,0 0.224615,0.09925 0.353398,0.222085 0.381224,0.363626 0.648638,1.124356 0.6489,1.845967 1.81e-4,0.514437 -0.12726,0.676897 -0.602319,0.767791 -0.158797,0.03038 -0.436489,0.04465 -0.436489,0.02242 0,-0.0055 0.01961,-0.04361 0.04358,-0.08469 0.159831,-0.273932 0.259531,-0.674133 0.257732,-1.034543 -0.002,-0.397884 -0.109281,-0.78422 -0.299555,-1.07861 -0.119367,-0.184684 -0.253455,-0.232174 -0.401195,-0.14209 -0.145307,0.0886 -0.166485,0.251876 -0.05527,0.426083 0.156374,0.244932 0.243386,0.601933 0.220207,0.903483 -0.01994,0.259485 -0.126074,0.569728 -0.277283,0.810577 -0.06633,0.105646 -0.120594,0.201149 -0.120594,0.212231 0,0.01108 -0.09401,0.01788 -0.208908,0.01512 -0.1149,-0.0028 -0.368995,-0.0081 -0.564655,-0.01187 z"
              id="path4360"
              inkscape:connector-curvature="0"
              transform="translate(18.605145,338.05174)" />
        <path
              style="fill:#7f7f7f;fill-opacity:1;stroke:#000000;stroke-width:0.19163792;stroke-miterlimit:4;stroke-dasharray:none;stroke-opacity:1"
              d="m 23.244725,43.944231 c -0.301693,-0.131234 -0.362082,-0.297676 -0.323765,-0.892345 0.05298,-0.822262 0.411468,-1.582927 0.842369,-1.787403 0.261413,-0.124048 0.31217,-0.191021 0.413955,-0.546197 0.253371,-0.884138 1.126882,-1.632224 2.276626,-1.94973 0.577882,-0.159584 1.691713,-0.196152 2.215527,-0.07274 1.176845,0.277274 2.147498,1.124411 2.579455,2.251216 0.202974,0.52948 0.282611,1.570278 0.151446,1.979268 -0.106574,0.332311 -0.344527,0.640531 -0.594247,0.76973 -0.246763,0.127669 -0.783018,0.275633 -1.002797,0.276693 l -0.159698,7.7e-4 0,-0.846413 c 0,-0.8761 -0.109165,-1.587322 -0.263268,-1.715215 -0.107991,-0.08963 -0.381214,-0.02636 -0.429492,0.09945 -0.01987,0.05177 0.0052,0.289169 0.05572,0.527556 0.107735,0.508429 0.121601,1.417649 0.02682,1.758926 l -0.06653,0.239547 -0.533137,0 c -0.446595,0 -0.541049,-0.01815 -0.58188,-0.111789 -0.02681,-0.06148 -0.06196,-0.509401 -0.07811,-0.995373 -0.02245,-0.675601 -0.0028,-1.024684 0.08347,-1.483024 0.09188,-0.488103 0.09773,-0.617641 0.03151,-0.697429 -0.118787,-0.14313 -0.303955,-0.119807 -0.41686,0.05251 -0.238346,0.363761 -0.372123,2.068558 -0.230052,2.93168 l 0.04994,0.303427 -0.504441,0 -0.504442,0 -0.172134,-0.367306 c -0.227303,-0.485028 -0.241269,-1.28795 -0.03044,-1.749874 0.122957,-0.269393 0.126499,-0.309305 0.03858,-0.43482 -0.166021,-0.237028 -0.349071,-0.14469 -0.563558,0.284285 -0.173817,0.347635 -0.1913,0.439707 -0.18801,0.990129 0.0028,0.461958 0.03583,0.687503 0.138507,0.944631 l 0.13488,0.337777 -0.553723,-0.01838 -0.553723,-0.01838 -0.175668,-0.34682 c -0.21973,-0.433813 -0.234324,-0.89849 -0.04224,-1.344999 0.148964,-0.346277 0.143548,-0.496636 -0.02164,-0.600662 -0.162942,-0.102613 -0.307467,0.0084 -0.492976,0.378535 -0.257764,0.514358 -0.243618,1.191435 0.03899,1.866037 0.04584,0.109426 -0.332313,0.100991 -0.59499,-0.01327 z"
              id="path4362"
              inkscape:connector-curvature="0"
              transform="translate(18.605145,338.05174)" />
        <path
              style="fill:#7f7f7f;fill-opacity:1;stroke:#000000;stroke-width:0.19163792;stroke-miterlimit:4;stroke-dasharray:none;stroke-opacity:1"
              d="m 31.623854,39.161442 c -0.201112,-0.09234 -0.666658,-0.563017 -0.79609,-0.804862 -0.06701,-0.125213 -0.05859,-0.146217 0.07238,-0.180466 0.296578,-0.07756 1.115891,-0.52929 1.474291,-0.812859 0.373608,-0.295601 0.459493,-0.490405 0.290651,-0.659247 -0.125128,-0.125129 -0.244942,-0.09031 -0.588177,0.170936 -0.498038,0.37907 -0.852542,0.584309 -1.238797,0.7172 -0.193681,0.06664 -0.359546,0.121157 -0.368589,0.121157 -0.03356,0 -0.474592,-0.82166 -0.474592,-0.884182 0,-0.150548 1.669667,-1.030618 1.95896,-1.032554 0.18985,-0.0013 0.541572,-0.153065 0.597708,-0.257956 0.103139,-0.192717 -0.02713,-0.380481 -0.263967,-0.380481 -0.414226,0 -1.70129,0.531031 -2.326218,0.959776 l -0.257095,0.176385 -0.20444,-0.369052 -0.204441,-0.369053 0.185681,-0.256325 c 0.339487,-0.468648 0.894258,-0.780524 1.388414,-0.780524 0.389268,0 0.597669,-0.202743 0.464387,-0.451782 -0.05232,-0.09775 -0.135506,-0.123131 -0.403607,-0.123131 -0.603516,0 -1.218403,0.278676 -1.683984,0.763207 L 29.00062,34.96334 28.790791,34.581662 c -0.246049,-0.447564 -0.233431,-0.535833 0.133509,-0.933916 0.267856,-0.290589 0.689995,-0.469876 1.106343,-0.469876 0.248352,0 0.375394,-0.135936 0.322818,-0.345418 -0.11084,-0.441619 -1.411516,-0.121032 -1.89661,0.467471 -0.100721,0.122193 -0.196698,0.208599 -0.213283,0.192015 -0.01658,-0.01658 -0.06637,-0.165553 -0.110628,-0.331043 -0.07352,-0.274882 -0.06918,-0.316141 0.0502,-0.477324 0.243893,-0.329296 1.237416,-0.611617 1.851414,-0.526101 0.14476,0.02016 0.34598,0.09135 0.447155,0.158189 0.154324,0.101956 0.307427,0.12202 0.950506,0.124565 0.700691,0.0028 0.796738,0.01788 1.117888,0.175861 0.904815,0.445089 1.758549,1.492263 2.068895,2.537668 0.133535,0.449814 0.134078,1.344611 0.0011,1.797372 -0.352871,1.201347 -1.422121,2.208357 -2.413328,2.272849 -0.248083,0.01614 -0.461403,-0.0067 -0.58291,-0.06253 z"
              id="path4364"
              inkscape:connector-curvature="0"
              transform="translate(18.605145,338.05174)" />
    </g>
</svg>
