<?xml version="1.0" encoding="UTF-8" standalone="no"?>
<!-- Generator: Adobe Illustrator 16.0.0, SVG Export Plug-In . SVG Version: 6.00 Build 0)  -->
<svg id="platans" xmlns:rdf="http://www.w3.org/1999/02/22-rdf-syntax-ns#" xmlns="http://www.w3.org/2000/svg" enable-background="new 0 0 800 800" xml:space="preserve" height="25.23" viewBox="0 0 33 25.229627" width="33" version="1.1" y="0px" x="0px" xmlns:cc="http://creativecommons.org/ns#" xmlns:dc="http://purl.org/dc/elements/1.1/"><g id="platans_tot" transform="matrix(.041364 0 0 .041364 -.087624 -3.8315)"><path id="path3" style="clip-rule:evenodd;fill:none" d="m365.23 702.56c55.596-0.72 109.72-10.144 162.23-28.688 79.524-28.109 150.24-69.616 206.06-134.22 69.708-80.657 83.098-171.14 46.841-269.81-11.789-32.079-31.064-58.874-64.92-71.591-4.72-1.774-4.87-4.427-4.108-8.737 1.832-10.457 3.398-20.985 4.47-31.543 1.507-14.717 1.614-29.421-2.643-43.854-3.584-12.152-11.101-19.5-24.147-20.149-11.633-0.577-23.266-1.321-34.909-1.33-12.729-0.009-17.038 6.632-10.93 17.968 12.153 22.539 15.702 46.315 13.826 71.565-0.669 9.03-2.317 11.801-11.991 9.381-17.944-4.478-28.372 0.256-34.926 13.295-18.988 37.816-45.946 68.673-81.146 92.228-50.552 33.829-106.35 55.112-165.43 67.962-108.3 23.559-212.54 14.458-310.87-40.076-2.637-1.46-5.767-2.858-8.661-2.858-21.862 0.032-50.216 16.407-39.521 47.683 1.875 5.506 3.181 11.26 5.516 16.558 18.99 43.101 44.022 82.161 79.004 114.09 6.939 6.332 8.345 9.352 1.206 16.904-18.127 19.176-18.303 30.891-3.021 52.627 8.102 11.51 17.383 22.031 27.409 31.956 69.414 68.778 153.34 101.34 250.66 100.65z"/><path id="path5" style="clip-rule:evenodd;fill-rule:evenodd" d="m365.23 702.56c-97.33 0.68-181.25-31.88-250.67-100.65-10.02-9.93-19.304-20.45-27.406-31.96-15.282-21.73-15.105-33.45 3.021-52.63 7.139-7.55 5.733-10.57-1.206-16.9-34.982-31.92-60.014-70.98-79.004-114.08-2.334-5.3-3.64-11.06-5.516-16.56-10.695-31.28 17.659-47.65 39.521-47.69 2.895 0 6.024 1.397 8.661 2.858 98.33 54.534 202.58 63.635 310.87 40.076 59.087-12.851 114.88-34.134 165.43-67.962 35.2-23.555 62.158-54.412 81.146-92.228 6.554-13.039 16.981-17.772 34.926-13.295 9.674 2.42 11.322-0.351 11.991-9.381 1.876-25.25-1.673-49.026-13.826-71.565-6.108-11.336-1.799-17.977 10.93-17.968 11.644 0.009 23.276 0.753 34.909 1.33 13.047 0.649 20.563 7.997 24.147 20.149 4.257 14.433 4.149 29.137 2.643 43.854-1.071 10.558-2.638 21.086-4.47 31.543-0.762 4.31-0.611 6.963 4.108 8.737 33.855 12.717 53.131 39.512 64.92 71.591 36.257 98.676 22.867 189.16-46.841 269.81-55.83 64.606-126.54 106.11-206.06 134.22-52.507 18.544-106.63 27.968-162.23 28.688zm323.63-418.83c0 3.704 0.392 7.461-0.086 11.103-1.279 9.845-2.36 19.775-4.527 29.442-17.006 75.67-61.521 132.96-122.22 178.4-67.564 50.588-144.77 76.798-228.28 85.171-62.569 6.271-123.16-0.585-180.24-28.877-4.025-1.993-7.799-1.809-11.867-0.234-6.846 2.647-12.277 7.393-18.153 11.53-5.775 4.072-5.063 7.508-0.36 12.253 47.629 48.072 103.72 80.683 170.85 92.234 85.408 14.688 167.84 2.51 247.93-29.261 61.949-24.58 117.76-58.508 163.82-107.2 51.706-54.674 80.521-117.9 70.712-194.95-4.285-33.623-12.914-65.77-31.576-94.738-12.387-19.241-31.443-28.74-51.128-37.821-6.896-3.181-12 2.582-18.445 2.825-30.731 1.147-23.836 0.405-32.724 27.567-0.419 1.289-0.554 2.683-0.728 4.042-4.202 32.557-18.906 60.547-37.695 86.768-34.882 48.691-80.034 86.235-129.8 118.56-71.733 46.593-149.57 75.69-235.68 80.073-27.41 1.397-54.818 0.161-82.219-0.684-3.163-0.1-6.896-1.72-8.737 2.926-3.106 7.816 0.895 18.254 8.578 21.236 17.575 6.825 35.377 12.993 53.713 17.486 76.268 18.683 151.19 10.969 224.86-12.907 88.578-28.71 161.17-79.173 211.7-158.96 22.573-35.656 35.253-74.743 42.309-115.98zm-58.334-71.289c-5.507 1.347-6.277 5.165-8.144 7.813-12.036 17.001-19.477 36.861-34.272 52.265-31.401 32.703-68.694 56.454-109.89 74.489-89.701 39.272-182.66 57.69-280.66 43.077-39.921-5.946-77.683-19.521-115.64-32.455-2.704-0.921-5.381-3.657-8.512-0.875-5.273 4.673-4.979 18.34 0.754 22.894 21.784 17.304 44.44 33.422 69.581 45.464 74.478 35.662 153.14 45.426 234.55 36.314 21.415-2.397 43.997-3.252 62.861-14.039 65.094-37.222 122.01-83.858 160.76-149.54 15.419-26.12 22.816-55.065 28.608-85.407zm-227.45 253.76c-3.013 0.326-6.042 0.548-9.049 0.992-52.692 7.754-105.22 6.804-157.52-3.244-58.533-11.244-112.28-33.119-157.82-72.618-15.082-13.077-21.535-14.119-39.344-5.837-5.524 2.564-7.046 5.38-3.975 11.081 22.178 41.181 49.638 77.949 87.433 106.31 6.226 4.676 12.862 7.558 20.512 8.697 63.488 9.473 125.76 3.213 187.1-14.487 25.308-7.306 49.804-16.739 72.654-30.895zm-262.48 68.36c2.277-4.146 1.03-5.786-2.468-6.62-8.302-1.978-16.512-4.377-24.848-6.188-5.574-1.215-9.031 1.146-12.429 6.265-9.205 13.864-2.368 24.528 5.432 35.306 7.081 9.795 7.089 9.68 14.479 0.701 1.925-2.343 4.117-5.173 6.77-6.101 11.825-4.144 14.654-12.963 13.064-23.363zm-118.95-182.52c0.235 10.549 2.469 17.325 4.946 24.086 2.244 6.122 3.524 12.963 11.099 3.624 2.995-3.703 8.251-5.762 12.872-5.59 14.101 0.518 13.558-12.14 16.746-19.697 2.235-5.298-7.381-5.863-11.13-9.273-2.001-1.812-4.738-2.808-6.738-4.615-4.369-3.951-10.035-7.089-14.738-3.674-6.026 4.377-12.78 9.403-13.057 15.139zm671.02-161.4c2.429-16.002 5.007-31.853 4.737-47.93-0.084-5.441-0.527-10.935-1.497-16.283-2.301-12.721-16.044-20.258-27.802-15.8-3.616 1.367-2.537 3.574-1.584 5.666 10.898 23.952 17.636 49.344 26.146 74.347z"/><g id="XMLID_1_"><g id="g8"><path id="path10" style="fill:#ffc432" d="m701.54 223.9c-7.971-2.571-13.884 4.713-20.482-0.429 3.942 7.542 5.913 15.083 10.112 24.939 1.972-10.712-1.971-20.825 10.37-24.51zm-227.19 226.68c49.792-32.31 94.87-69.846 129.75-118.52 18.854-26.225 33.509-54.249 37.708-86.814 0.172-1.371 0.343-2.742 0.771-4.028 8.827-27.167 1.971-26.396 32.737-27.596 6.428-0.257 11.483-5.999 18.426-2.828 19.625 9.084 38.736 18.597 51.077 37.88 18.683 28.966 27.339 61.104 31.623 94.699 9.771 77.044-19.025 140.29-70.702 194.97-46.107 48.678-101.9 82.615-163.86 107.21-80.044 31.795-162.49 43.965-247.93 29.224-67.103-11.569-123.24-44.136-170.8-92.213-4.714-4.714-5.399-8.142 0.343-12.255 5.828-4.114 11.312-8.913 18.168-11.57 4.028-1.542 7.798-1.714 11.827 0.258 57.076 28.28 117.67 35.137 180.23 28.881 83.558-8.398 160.77-34.537 228.3-85.187 60.676-45.421 105.24-102.67 122.21-178.34 2.143-9.685 3.257-19.625 4.542-29.481 0.514-3.6 0.086-7.371 0.086-11.056-7.027 41.222-19.711 80.301-42.336 115.95-50.478 79.787-123.06 130.26-211.68 158.97-73.617 23.825-148.6 31.538-224.88 12.855-18.34-4.456-36.08-10.627-53.648-17.483-7.713-2.913-11.741-13.369-8.57-21.168 1.8-4.713 5.571-3.085 8.656-2.999 27.424 0.857 54.848 2.143 82.272 0.686 86.128-4.373 163.94-33.425 235.68-80.046z"/></g></g><g id="XMLID_2_"><g id="g15"><path id="path17" style="fill:#eeb124" d="m630.49 212.5c-5.742 30.338-13.197 59.304-28.538 85.357-38.822 65.732-95.728 112.35-160.77 149.55-18.854 10.798-41.479 11.655-62.904 14.055-81.415 9.084-160.09-0.686-234.56-36.337-25.11-11.998-47.735-28.11-69.589-45.421-5.656-4.542-5.999-18.254-0.686-22.882 3.085-2.828 5.742-0.085 8.484 0.857 37.965 12.94 75.673 26.481 115.61 32.48 98.041 14.569 190.94-3.856 280.67-43.107 41.222-17.997 78.501-41.822 109.87-74.474 14.826-15.426 22.282-35.309 34.28-52.277 1.887-2.656 2.659-6.513 8.143-7.798z"/></g></g><g id="XMLID_3_"><g id="g22"><path id="path24" style="fill:#eeb124" d="m236.53 464.03c52.277 10.026 104.81 10.97 157.52 3.171 3-0.429 5.999-0.601 8.999-0.943-22.796 14.141-47.307 23.568-72.588 30.853-61.361 17.74-123.67 23.996-187.17 14.483-7.627-1.114-14.226-4.028-20.482-8.656-37.8-28.36-65.224-65.13-87.421-106.35-3.085-5.656-1.542-8.484 3.942-11.055 17.826-8.313 24.253-7.199 39.336 5.828 45.593 39.507 99.327 61.361 157.86 72.673z"/></g></g><g id="XMLID_4_"><g id="g29"><path id="path31" style="fill:#986c29" d="m138.14 527.97c3.514 0.856 4.713 2.484 2.485 6.599 1.543 10.455-1.285 19.282-13.112 23.396-2.657 0.942-4.799 3.771-6.771 6.084-7.37 8.999-7.37 9.085-14.483-0.686-7.798-10.798-14.655-21.425-5.399-35.309 3.342-5.142 6.856-7.456 12.426-6.256 8.313 1.801 16.541 4.2 24.854 6.172z"/></g></g><g id="XMLID_5_"><g id="g36"><path id="path38" style="fill:#986c29" d="m50.558 374.22c-4.628-0.171-9.855 1.885-12.855 5.57-7.627 9.341-8.827 2.485-11.141-3.599-2.485-6.771-4.713-13.541-4.885-24.082 0.257-5.742 7.027-10.798 13.026-15.169 4.713-3.428 10.37-0.257 14.74 3.685 1.971 1.8 4.714 2.828 6.771 4.628 3.685 3.342 13.284 3.942 11.055 9.255-3.171 7.543-2.571 20.226-16.711 19.712z"/></g></g><g id="XMLID_6_"><g id="g43"><path id="path45" style="fill:#986c29" d="m692.62 190.65c-8.484-24.938-15.169-50.392-26.139-74.302-0.942-2.143-1.971-4.285 1.628-5.656 11.741-4.457 25.453 3.085 27.768 15.769 1.028 5.313 1.457 10.884 1.542 16.283 0.258 16.111-2.314 31.966-4.799 47.906z"/></g></g><path id="path49" style="clip-rule:evenodd;fill-rule:evenodd" d="m681.1 223.43c6.562 5.126 12.479-2.126 20.411 0.431-12.293 3.682-8.359 13.825-10.369 24.534-4.141-9.877-6.144-17.379-10.042-24.965z"/></g><metadata id="metadata51"><rdf:RDF><cc:Work><dc:format>image/svg+xml</dc:format><dc:type rdf:resource="http://purl.org/dc/dcmitype/StillImage"/><cc:license rdf:resource="http://creativecommons.org/publicdomain/zero/1.0/"/><dc:publisher><cc:Agent rdf:about="http://openclipart.org/"><dc:title>Openclipart</dc:title></cc:Agent></dc:publisher><dc:title/><dc:date>2013-12-11T18:49:28</dc:date><dc:description>Two bananas</dc:description><dc:source>http://openclipart.org/detail/189450/banana-by-casino-189450</dc:source><dc:creator><cc:Agent><dc:title>casino</dc:title></cc:Agent></dc:creator><dc:subject><rdf:Bag><rdf:li>Banana</rdf:li></rdf:Bag></dc:subject></cc:Work><cc:License rdf:about="http://creativecommons.org/publicdomain/zero/1.0/"><cc:permits rdf:resource="http://creativecommons.org/ns#Reproduction"/><cc:permits rdf:resource="http://creativecommons.org/ns#Distribution"/><cc:permits rdf:resource="http://creativecommons.org/ns#DerivativeWorks"/></cc:License></rdf:RDF></metadata></svg>
